<svg width="160" height="54" viewBox="0 0 160 54" fill="none" xmlns="http://www.w3.org/2000/svg">
<path d="M2 27C2 41.3646 14.0455 53.2155 28.808 53.2155C43.661 53.2155 55.6159 41.5442 55.6159 27C55.6159 12.6354 43.661 0.784546 28.808 0.784546C14.0455 0.784546 2 12.4558 2 27Z" fill="white"/>
<path d="M151.709 22.6328C151.685 22.6328 151.657 22.6565 151.657 22.6844V23.1577C151.657 23.1842 151.685 23.2094 151.709 23.2094H152.593V26.201C152.593 26.2275 152.616 26.2526 152.645 26.2526H153.141C153.167 26.2526 153.197 26.2275 153.197 26.201V23.2094H154.076C154.103 23.2094 154.128 23.1842 154.128 23.1577V22.6844C154.128 22.6565 154.103 22.6328 154.076 22.6328" fill="black"/>
<path d="M115.127 18.1432C115.127 19.1121 115.891 19.8673 116.866 19.8673C117.838 19.8673 118.606 19.1121 118.606 18.1432C118.606 17.1814 117.838 16.4192 116.866 16.4192C115.891 16.4192 115.127 17.1772 115.127 18.1432Z" fill="black"/>
<path d="M124.237 23.8055L124.13 23.8683L123.905 23.2485C123.83 23.0377 123.63 22.8995 123.41 22.8995H122.29C122.002 22.8995 121.766 23.1326 121.766 23.4244V37.6818C121.766 37.968 122.002 38.2067 122.29 38.2067H124.298C124.589 38.2067 124.826 37.968 124.826 37.6818V26.141L124.881 26.1173C125.709 25.6873 126.545 25.4263 128.172 25.4263C130.128 25.4263 130.521 26.1522 130.521 27.3332V37.6832C130.521 37.968 130.757 38.2039 131.044 38.2039H133.056C133.344 38.2039 133.579 37.968 133.579 37.6832V27.4156C133.579 24.2731 131.712 22.6133 128.172 22.6133C126.861 22.6133 125.537 23.0139 124.237 23.8055Z" fill="black"/>
<path d="M118.367 23.4257C118.367 23.1339 118.131 22.9008 117.842 22.9008H115.887C115.599 22.9008 115.364 23.1339 115.364 23.4257V37.6832C115.364 37.9693 115.599 38.2039 115.887 38.2039H117.839C118.131 38.2039 118.367 37.9693 118.367 37.6832" fill="black"/>
<path d="M111.688 16.2934C111.688 16.0031 111.451 15.7686 111.159 15.7686H109.216C108.92 15.7686 108.684 16.0031 108.684 16.2934V37.6831C108.684 37.9693 108.92 38.2038 109.212 38.2038H111.159C111.451 38.2038 111.688 37.9693 111.688 37.6831" fill="black"/>
<path d="M81.5966 29.2039C81.745 27.2411 82.2641 25.4263 85.0436 25.4263C87.4313 25.4263 87.8952 26.7009 87.9515 29.2081L87.9556 29.3198H81.5882L81.5966 29.2039ZM78.4892 30.5552C78.4892 32.518 78.4891 38.493 85.0436 38.493C87.0077 38.493 88.3034 38.3743 89.9952 37.8341C90.1947 37.774 90.307 37.5632 90.307 37.3608V35.7568C90.307 35.5767 90.2192 35.4148 90.0708 35.3199C89.9231 35.2193 89.7512 35.2403 89.5753 35.2752C88.1071 35.5809 86.9358 35.68 85.0436 35.68C82.3165 35.68 81.781 33.9601 81.609 32.1048L81.5966 31.9889H90.4987C90.7914 31.9889 91.0271 31.7558 91.0271 31.4696V30.5552C91.0271 26.7134 90.5674 22.6176 85.0436 22.6176C78.4891 22.6134 78.4892 28.5938 78.4892 30.5552Z" fill="black"/>
<path d="M96.4947 29.2039C96.6431 27.2411 97.1622 25.4263 99.9417 25.4263C102.329 25.4263 102.793 26.7009 102.85 29.2081L102.854 29.3198H96.4863L96.4947 29.2039ZM93.3873 30.5552C93.3873 32.518 93.3873 38.493 99.9417 38.493C101.906 38.493 103.202 38.3743 104.893 37.8341C105.093 37.774 105.205 37.5632 105.205 37.3608V35.7568C105.205 35.5767 105.117 35.4148 104.969 35.3199C104.821 35.2193 104.649 35.2403 104.473 35.2752C103.005 35.5809 101.834 35.68 99.9417 35.68C97.2146 35.68 96.6791 33.9601 96.5071 32.1048L96.4947 31.9889H105.397C105.69 31.9889 105.925 31.7558 105.925 31.4696V30.5552C105.925 26.7134 105.466 22.6176 99.9417 22.6176C93.3873 22.6134 93.3873 28.5938 93.3873 30.5552Z" fill="black"/>
<path d="M139.335 29.2039C139.483 27.2411 140.003 25.4263 142.782 25.4263C145.17 25.4263 145.634 26.7009 145.687 29.2081L145.69 29.3198H139.327L139.335 29.2039ZM136.231 30.5552C136.231 32.518 136.231 38.493 142.782 38.493C144.747 38.493 146.037 38.3743 147.739 37.8341C147.93 37.774 148.045 37.5632 148.045 37.3608V35.7568C148.045 35.5767 147.957 35.4148 147.809 35.3199C147.661 35.2193 147.486 35.2403 147.314 35.2752C145.842 35.5809 144.678 35.68 142.782 35.68C140.052 35.68 139.519 33.9601 139.346 32.1048L139.331 31.9889H148.238C148.526 31.9889 148.762 31.7558 148.762 31.4696V30.5552C148.762 26.7134 148.301 22.6176 142.782 22.6176C136.224 22.6134 136.231 28.5938 136.231 30.5552Z" fill="black"/>
<path d="M68.7797 28.0522C71.8831 28.0522 72.9826 28.9889 72.9826 31.6274C72.9826 33.3961 72.4746 35.2039 68.7232 35.2039H64.2084V28.048H68.7796L68.7797 28.0522ZM68.5473 18.6947C71.8144 18.6947 72.2626 20.2373 72.2626 21.8986C72.2626 24.0163 71.1233 25.048 68.7797 25.048H64.2085V18.6947H68.5473ZM61.6009 15.6919C61.2885 15.6919 61.0366 15.9418 61.0366 16.2531V37.6427C61.0366 37.9527 61.2885 38.2068 61.6009 38.2068H68.6109C73.6225 38.2068 76.3815 35.867 76.3815 31.6274C76.3815 29.3184 75.2625 27.3486 73.3867 26.3588C73.3867 26.3588 73.3388 26.3365 73.2948 26.3072C73.3347 26.2834 73.3788 26.2527 73.3788 26.2527C74.8305 25.2043 75.662 23.6185 75.662 21.8986C75.662 19.5812 74.7221 15.6919 68.4069 15.6919" fill="black"/>
<path d="M157.348 22.6328C157.324 22.6328 157.309 22.6482 157.3 22.6635C157.3 22.6635 156.397 24.7547 156.309 24.9614C156.221 24.7547 155.32 22.6635 155.32 22.6635C155.313 22.6482 155.293 22.6328 155.272 22.6328H154.677C154.646 22.6328 154.62 22.6565 154.62 22.6844V26.201C154.62 26.2275 154.641 26.2526 154.677 26.2526H155.161C155.168 26.2526 155.188 26.2485 155.196 26.2359C155.205 26.2275 155.212 26.2164 155.212 26.1968C155.212 26.1968 155.196 24.1587 155.188 23.7287C155.357 24.1112 156.076 25.7515 156.076 25.7515C156.08 25.7711 156.101 25.7836 156.124 25.7836H156.501C156.52 25.7836 156.54 25.7711 156.544 25.7515C156.544 25.7515 157.264 24.1112 157.425 23.7287C157.425 24.1587 157.408 26.1968 157.408 26.1968C157.408 26.2164 157.413 26.2275 157.421 26.2359C157.432 26.2485 157.445 26.2526 157.46 26.2526H157.944C157.973 26.2526 158 26.2275 158 26.201V22.6844C158 22.6565 157.976 22.6328 157.944 22.6328" fill="black"/>
<path d="M3.70209 27.0177C3.70209 40.4194 14.9161 51.4758 28.6596 51.4758C42.4874 51.4758 53.6171 40.5869 53.6171 27.0177C53.6171 13.616 42.4874 2.55957 28.6596 2.55957C14.9161 2.55957 3.70209 13.4484 3.70209 27.0177Z" fill="url(#paint0_linear)"/>
<path d="M3.70209 27.0177C3.70209 40.4194 14.9161 51.4758 28.6596 51.4758C42.4874 51.4758 53.6171 40.5869 53.6171 27.0177C53.6171 13.616 42.4874 2.55957 28.6596 2.55957C14.9161 2.55957 3.70209 13.4484 3.70209 27.0177Z" fill="url(#paint1_linear)"/>
<path fill-rule="evenodd" clip-rule="evenodd" d="M10.0259 10.8519C22.0831 9.84677 35.3207 9.76301 47.3779 10.8519C42.8248 5.82626 36.0795 2.47583 28.6597 2.47583C21.2399 2.47583 14.579 5.82626 10.1102 10.8519H10.0259ZM47.5465 42.9322C35.9109 43.7698 21.9988 43.9373 9.77298 42.9322C14.326 48.1254 21.1556 51.4758 28.6597 51.4758C36.2482 51.4758 42.9934 48.1254 47.6308 42.9322H47.5465ZM4.54534 20.8194C20.8184 20.5681 36.5854 20.4843 52.8584 20.8194C53.3643 22.8296 53.7015 24.8399 53.7015 27.0177C53.7015 28.8604 53.4486 30.7031 53.027 32.4621C36.5854 32.9647 20.3968 32.8809 4.37671 32.4621C3.95513 30.7869 3.7865 28.9442 3.7865 27.1014C3.7865 24.9237 4.12376 22.9134 4.62966 20.9031" fill="#231F1F"/>
<defs>
<linearGradient id="paint0_linear" x1="28.6596" y1="2.55957" x2="28.6596" y2="51.4758" gradientUnits="userSpaceOnUse">
<stop stop-color="white"/>
<stop offset="1"/>
</linearGradient>
<linearGradient id="paint1_linear" x1="11.5387" y1="51.4758" x2="60.2201" y2="-8.04466" gradientUnits="userSpaceOnUse">
<stop stop-color="#FFE100"/>
<stop offset="1" stop-color="#FAA61A"/>
</linearGradient>
</defs>
</svg>
