<svg width="60" height="60" viewBox="0 0 60 60" fill="none" xmlns="http://www.w3.org/2000/svg">
    <path d="M2.50195 41.5576C2.74312 40.505 8.9602 16.3928 8.9602 16.3928H31.91L29.4882 26.018H24.9905C24.9101 25.6942 24.85 25.4562 24.7696 25.1324C24.5284 24.1608 23.9657 23.2702 23.1618 22.5415C22.5187 21.8937 21.7148 21.4889 20.8306 21.246C20.3482 21.0841 19.7855 21.0031 19.3032 21.0031C17.7758 20.9221 16.3288 21.246 14.9622 21.8938C13.7564 22.4605 12.7113 23.1082 11.7467 23.9989C10.5409 25.1324 9.57619 26.5897 8.93309 28.2091C8.69195 28.8568 8.53118 29.5855 8.45076 30.3142C8.37038 31.2858 8.45076 32.2573 8.77233 33.2289C9.33505 34.7673 10.2997 35.8198 11.7467 36.4675C12.3898 36.7914 13.1133 36.9533 13.8368 37.0343C15.123 37.1153 16.4092 36.9533 17.615 36.5485C18.9817 36.0627 20.2679 35.334 21.3129 34.3624C22.1971 33.6337 22.9285 32.788 23.4912 31.8164H27.9889L25.4518 41.5576H2.50195Z" fill="#2F3980"/>
    <path d="M57.0511 33.5527C56.7293 34.9291 54.86 41.4416 54.86 41.4416H36.7537L43.2118 16.3928H51.054L46.5563 33.5527H57.0511Z" fill="#2F3980"/>
    <path d="M21.8758 27.6423C21.8758 28.6139 21.5543 29.5855 21.072 30.4761C20.1073 32.1764 18.6603 33.3099 16.8114 33.7957C16.0075 34.0386 15.1232 34.0386 14.239 33.8766C12.792 33.4718 11.9077 32.5812 11.5861 31.1238C11.345 30.0713 11.5057 29.0187 11.9881 28.0471C12.792 26.2659 14.1586 24.9704 15.9271 24.2417C16.6506 23.9179 17.4545 23.8369 18.178 23.8369C19.0623 23.8369 19.8661 24.0798 20.5093 24.6466C21.2327 25.2133 21.6347 26.023 21.7955 26.9945C21.8489 27.3174 21.8758 27.5613 21.8758 27.6423Z" fill="#DB8F1C"/>
    <path d="M27.2395 41.5576L29.7832 31.7004H37.5612L35.024 41.5576H27.2395Z" fill="#DB8F1B"/>
    <path d="M33.6977 16.3928H41.4822L39.0604 26.018H31.2183L33.6977 16.3928Z" fill="#DB8F1C"/>
    <path d="M54.5162 9.43853V31.585H48.8639L53.1405 14.7829H7.47999L5.04483 24.7231H4.92285V9.66482C4.98163 7.11572 7.28815 5.14429 9.01803 5.14429H50.4775C52.323 5.14429 54.5162 7.4056 54.5162 9.43853Z" fill="#2A3781"/>
    <path d="M4.87579 43.1095C21.4358 42.9475 38.0762 43.0286 54.6359 43.0286V43.2716V50.3966C54.6359 51.5301 54.234 52.6633 53.4302 53.5543C52.6264 54.4448 51.5813 55.0114 50.4561 55.0924H49.9737H9.29714C8.17171 55.0924 7.12666 54.6874 6.3228 53.8778C5.6797 53.3113 5.19736 52.5827 4.95617 51.6917C4.79541 51.2871 4.79541 50.8011 4.79541 50.3156V43.1095H4.87579Z" fill="#313B81"/>
    <path d="M46.4835 46.7961H46.1148L45.5757 45.309V46.7961H45.207V44.5286H45.5757L46.1161 46.0174V44.5286H46.4835V46.7961Z" fill="white"/>
    <path d="M48.2604 46.1734L48.5702 44.5286H48.9858L48.4539 46.7961H48.0665L47.5388 44.5286H47.9514L48.2604 46.1734Z" fill="white"/>
    <path d="M46.8772 46.5591C46.8772 46.4897 46.9002 46.4327 46.9458 46.3881C46.9923 46.3431 47.0528 46.3208 47.1265 46.3208C47.1986 46.3208 47.2582 46.3431 47.306 46.3881C47.3537 46.4318 47.3776 46.4888 47.3776 46.5591C47.3776 46.6307 47.3533 46.6881 47.3047 46.7318C47.2569 46.7747 47.1977 46.7961 47.1265 46.7961C47.0545 46.7961 46.9948 46.7742 46.9471 46.7305C46.9006 46.6864 46.8772 46.6294 46.8772 46.5591Z" fill="white"/>
    <path d="M49.0706 46.5591C49.0706 46.4897 49.0931 46.4327 49.1387 46.3881C49.1856 46.3431 49.2457 46.3208 49.3199 46.3208C49.3919 46.3208 49.4516 46.3431 49.4993 46.3881C49.5466 46.4318 49.5705 46.4888 49.5705 46.5591C49.5705 46.6307 49.5462 46.6881 49.4976 46.7318C49.4499 46.7747 49.3906 46.7961 49.3199 46.7961C49.2479 46.7961 49.1882 46.7742 49.1405 46.7305C49.0936 46.6864 49.0706 46.6294 49.0706 46.5591Z" fill="white"/>
    <path d="M36.9789 47.6408L36.1956 50.0035L35.8994 49.9229L36.6882 47.5542L36.9789 47.6408Z" fill="white"/>
    <path d="M37.3058 47.7197H37.7155V49.2352C37.7155 49.3084 37.7062 49.3809 37.6878 49.452C37.6693 49.5236 37.6398 49.5879 37.5992 49.6453C37.5605 49.7027 37.5088 49.7494 37.4442 49.785C37.3796 49.8206 37.3012 49.8386 37.2089 49.8386C37.1499 49.8386 37.0862 49.8317 37.018 49.8176C36.9515 49.8056 36.8925 49.788 36.8408 49.764L36.9294 49.4134C36.9829 49.4392 37.0419 49.452 37.1066 49.452C37.149 49.452 37.1831 49.4443 37.2089 49.4284C37.2348 49.4104 37.2551 49.3869 37.2698 49.3569C37.2846 49.3252 37.2938 49.2887 37.2975 49.2472C37.303 49.2056 37.3058 49.161 37.3058 49.1134V47.7197Z" fill="white"/>
    <path d="M39.657 49.4452L40.3925 48.1132H39.657V47.7197H40.7521V48.1132L40.0202 49.4452H40.7521V49.8386H39.657V49.4452Z" fill="white"/>
    <path d="M38.9221 49.3907H38.4252L38.3052 49.8386H37.9937L38.5705 47.7197H38.7999L39.3789 49.8386H39.0484L38.9221 49.3907ZM38.5115 49.0389H38.8484L38.6842 48.2666H38.6737L38.5115 49.0389Z" fill="white"/>
    <path d="M29.0954 48.9677L29.1383 48.6647H28.8735L28.8306 48.9677H29.0954ZM29.7157 49.3029H29.3273L29.2467 49.8939H28.9668L29.0475 49.3029H28.7827L28.7021 49.8939H28.4222L28.5029 49.3029H28.2961V48.9677H28.5508L28.5936 48.6647H28.3113V48.3326H28.639L28.7273 47.7197H29.0046L28.9189 48.3326H29.1836L29.2719 47.7197H29.5492L29.4635 48.3326H29.7157V48.6647H29.4181L29.3752 48.9677H29.7157V49.3029Z" fill="white"/>
    <path d="M20.55 47.8124C20.55 47.743 20.5729 47.686 20.6185 47.641C20.6651 47.5964 20.7254 47.5737 20.7994 47.5737C20.8714 47.5737 20.9312 47.5964 20.9788 47.641C21.0265 47.6847 21.0502 47.7422 21.0502 47.8124C21.0502 47.8836 21.0259 47.9414 20.9773 47.9852C20.9296 48.028 20.8703 48.0494 20.7994 48.0494C20.7274 48.0494 20.6676 48.0272 20.62 47.9834C20.5734 47.9397 20.55 47.8827 20.55 47.8124Z" fill="white"/>
    <path d="M19.3469 47.5737H19.7488V49.5503H20.3115V49.894C20.1508 49.894 19.99 49.894 19.8292 49.894C19.6684 49.894 19.5077 49.894 19.3469 49.894V47.5737Z" fill="white"/>
    <path d="M21.0011 49.8939H20.5991V48.3125H21.0011V49.8939Z" fill="white"/>
    <path d="M21.9503 49.8939C21.7603 49.8939 21.6025 49.8287 21.477 49.6989C21.3516 49.5673 21.2888 49.3697 21.2888 49.1061C21.2888 48.8404 21.3506 48.6429 21.4743 48.513C21.5979 48.381 21.7566 48.3154 21.9503 48.3154C22.0647 48.3154 22.1948 48.3377 22.3406 48.3831L22.2658 48.681C22.1533 48.6536 22.0629 48.6399 21.9946 48.6399C21.8858 48.6399 21.8018 48.675 21.7427 48.7461C21.6855 48.8147 21.6569 48.9377 21.6569 49.1147C21.6569 49.2917 21.6883 49.4147 21.751 49.4837C21.8156 49.5523 21.9051 49.587 22.0195 49.587C22.0786 49.587 22.169 49.5771 22.2908 49.5574L22.3378 49.8257C22.192 49.8711 22.0629 49.8939 21.9503 49.8939Z" fill="white"/>
    <path d="M22.8281 49.1413C22.8319 49.4366 22.9536 49.584 23.1935 49.584C23.3061 49.584 23.4177 49.5613 23.5284 49.5159L23.5948 49.7961C23.4528 49.8613 23.295 49.8939 23.1215 49.8939C22.6842 49.8939 22.4656 49.6191 22.4656 49.0706C22.4656 48.8541 22.52 48.6741 22.6289 48.5306C22.7378 48.387 22.8946 48.3154 23.0994 48.3154C23.2636 48.3154 23.39 48.3626 23.4786 48.4569C23.569 48.5494 23.6142 48.6793 23.6142 48.8464C23.6142 48.9446 23.6022 49.0431 23.5782 49.1413H22.8281ZM23.3042 48.9171V48.8996C23.3042 48.7046 23.2396 48.6073 23.1105 48.6073C22.9555 48.6073 22.8623 48.7106 22.8309 48.9171H23.3042Z" fill="white"/>
    <path d="M26.8558 49.1413C26.8594 49.4366 26.9812 49.584 27.2211 49.584C27.3337 49.584 27.4453 49.5613 27.556 49.5159L27.6224 49.7961C27.4804 49.8613 27.3226 49.8939 27.1492 49.8939C26.7118 49.8939 26.4932 49.6191 26.4932 49.0706C26.4932 48.8541 26.5476 48.6741 26.6565 48.5306C26.7653 48.387 26.9222 48.3154 27.127 48.3154C27.2912 48.3154 27.4176 48.3626 27.5062 48.4569C27.5966 48.5494 27.6418 48.6793 27.6418 48.8464C27.6418 48.9446 27.6298 49.0431 27.6058 49.1413H26.8558ZM27.3318 48.9171V48.8996C27.3318 48.7046 27.2672 48.6073 27.1381 48.6073C26.9831 48.6073 26.8899 48.7106 26.8585 48.9171H27.3318Z" fill="white"/>
    <path d="M24.6518 48.3535C24.8123 48.3535 24.9212 48.3977 24.9784 48.4864C25.0374 48.5729 25.067 48.6968 25.067 48.8579V49.8938H24.6795V48.9317C24.6795 48.8549 24.6675 48.7962 24.6435 48.7547C24.6213 48.7114 24.566 48.6899 24.4774 48.6899C24.3888 48.6899 24.3086 48.7264 24.2366 48.7992V49.8938H23.8408V48.3801H24.1674L24.2006 48.5481C24.2542 48.4954 24.3215 48.4499 24.4027 48.4127C24.4857 48.3732 24.5687 48.3535 24.6518 48.3535Z" fill="white"/>
    <path d="M25.8631 48.6339C25.7376 48.6339 25.6749 48.6781 25.6749 48.7668C25.6749 48.8139 25.6961 48.8542 25.7386 48.8876C25.781 48.9211 25.8317 48.9506 25.8907 48.9764C25.9517 48.9999 26.0116 49.0274 26.0706 49.0586C26.1316 49.0882 26.1832 49.1315 26.2257 49.1885C26.2681 49.2455 26.2893 49.3154 26.2893 49.3981C26.2893 49.5455 26.2423 49.6655 26.1482 49.7581C26.0541 49.8485 25.9157 49.8939 25.733 49.8939C25.6499 49.8939 25.5623 49.8841 25.47 49.8644C25.3796 49.8446 25.3132 49.8219 25.2708 49.7962L25.3649 49.5014C25.5088 49.5524 25.638 49.5781 25.7524 49.5781C25.8686 49.5781 25.9268 49.5301 25.9268 49.4336C25.9268 49.3921 25.9055 49.3548 25.8631 49.3214C25.8206 49.2879 25.769 49.2575 25.7081 49.2301C25.649 49.2005 25.5891 49.1688 25.5282 49.1354C25.4691 49.1019 25.4184 49.0548 25.3759 48.9939C25.3335 48.9331 25.3123 48.8619 25.3123 48.7814C25.3123 48.6301 25.3594 48.5139 25.4535 48.4334C25.5476 48.3528 25.6822 48.3125 25.8575 48.3125C26.0328 48.3125 26.1703 48.3429 26.2699 48.4038L26.1786 48.6961C26.0513 48.6545 25.9461 48.6339 25.8631 48.6339Z" fill="white"/>
    <path d="M30.8867 49.5235C30.966 49.5235 31.0306 49.4939 31.0804 49.4356C31.1302 49.3748 31.1551 49.2848 31.1551 49.1656C31.1551 49.0443 31.1321 48.9565 31.086 48.9021C31.0398 48.8459 30.9762 48.8176 30.895 48.8176C30.8138 48.8176 30.7354 48.8605 30.6597 48.9462L30.4576 48.8365V47.7539H31.4236V48.1148H30.7815V48.5133C30.8405 48.4649 30.9162 48.4409 31.0084 48.4409C31.1579 48.4409 31.2815 48.5026 31.3793 48.626C31.4771 48.7473 31.526 48.9171 31.526 49.1343C31.526 49.3521 31.4725 49.5329 31.3655 49.6769C31.2585 49.8213 31.109 49.8938 30.9171 49.8938C30.727 49.8938 30.5398 49.8299 30.3552 49.7022L30.4743 49.3915C30.6292 49.4793 30.7667 49.5235 30.8867 49.5235Z" fill="white"/>
    <path d="M32.3078 49.5235C32.3871 49.5235 32.4517 49.4939 32.5015 49.4356C32.5513 49.3748 32.5763 49.2848 32.5763 49.1656C32.5763 49.0443 32.5532 48.9565 32.5071 48.9021C32.4609 48.8459 32.3973 48.8176 32.3161 48.8176C32.2349 48.8176 32.1565 48.8605 32.0808 48.9462L31.8788 48.8365V47.7539H32.8447V48.1148H32.2026V48.5133C32.2616 48.4649 32.3373 48.4409 32.4296 48.4409C32.579 48.4409 32.7026 48.5026 32.8004 48.626C32.8983 48.7473 32.9471 48.9171 32.9471 49.1343C32.9471 49.3521 32.8936 49.5329 32.7866 49.6769C32.6796 49.8213 32.5301 49.8938 32.3382 49.8938C32.1482 49.8938 31.9609 49.8299 31.7764 49.7022L31.8954 49.3915C32.0504 49.4793 32.1878 49.5235 32.3078 49.5235Z" fill="white"/>
    <path d="M33.9114 48.3189C33.9114 48.2456 33.8884 48.1912 33.8422 48.1556C33.798 48.12 33.7306 48.1024 33.6402 48.1024C33.5516 48.1024 33.439 48.1337 33.3025 48.1963L33.2139 47.8607C33.3948 47.7664 33.5701 47.7197 33.7398 47.7197C33.9096 47.7197 34.0424 47.7699 34.1384 47.8702C34.2343 47.9683 34.2823 48.1012 34.2823 48.2687C34.2823 48.3523 34.2648 48.4337 34.2297 48.5134C34.1965 48.5927 34.1448 48.6574 34.0747 48.708C34.2722 48.804 34.3709 48.9639 34.3709 49.188C34.3709 49.4096 34.3118 49.5832 34.1937 49.7087C34.0775 49.8322 33.9179 49.8939 33.7149 49.8939C33.5655 49.8939 33.392 49.854 33.1946 49.7743L33.2776 49.4263C33.4437 49.4932 33.5793 49.5266 33.6845 49.5266C33.8948 49.5266 34 49.419 34 49.2034C34 49.1074 33.9714 49.0312 33.9142 48.9746C33.857 48.918 33.773 48.8897 33.6623 48.8897H33.4714V48.573H33.6346C33.8192 48.573 33.9114 48.4882 33.9114 48.3189Z" fill="white"/>
    <path d="M35.2572 49.8904C34.866 49.8904 34.6704 49.5819 34.6704 48.9652C34.6704 48.5657 34.7396 48.258 34.878 48.0429C35.0164 47.8273 35.1991 47.7197 35.426 47.7197C35.5423 47.7197 35.6576 47.7489 35.772 47.8076L35.6862 48.1432C35.6216 48.1157 35.5432 48.1024 35.4509 48.1024C35.3605 48.1024 35.283 48.1389 35.2184 48.2122C35.1539 48.2854 35.1096 48.4003 35.0856 48.5572C35.1225 48.5194 35.1658 48.4912 35.2157 48.4727C35.2674 48.4539 35.3107 48.4444 35.3458 48.4444C35.5007 48.4444 35.6234 48.5006 35.7139 48.6137C35.8043 48.7264 35.8495 48.8949 35.8495 49.1186C35.8495 49.3406 35.7987 49.5244 35.6973 49.671C35.5958 49.8172 35.4491 49.8904 35.2572 49.8904ZM35.0551 48.8773C35.0551 49.122 35.0727 49.2913 35.1077 49.3856C35.1428 49.4794 35.1944 49.5266 35.2627 49.5266C35.3329 49.5266 35.3863 49.4923 35.4233 49.4233C35.4602 49.3522 35.4786 49.2579 35.4786 49.1409C35.4786 49.0234 35.4602 48.939 35.4233 48.8867C35.3882 48.8344 35.3356 48.8083 35.2655 48.8083C35.1972 48.8062 35.1271 48.8293 35.0551 48.8773Z" fill="white"/>
    <path d="M40.8066 44.7673C40.8066 44.6979 40.8294 44.6408 40.875 44.5958C40.9217 44.5513 40.982 44.5286 41.056 44.5286C41.1279 44.5286 41.1877 44.5513 41.2354 44.5958C41.283 44.64 41.3068 44.697 41.3068 44.7673C41.3068 44.8384 41.2825 44.8963 41.2339 44.94C41.1862 44.9829 41.1269 45.0043 41.056 45.0043C40.984 45.0043 40.9242 44.9824 40.8766 44.9383C40.83 44.8946 40.8066 44.8376 40.8066 44.7673Z" fill="white"/>
    <path d="M34.9126 44.7673C34.9126 44.6979 34.9354 44.6408 34.981 44.5958C35.0276 44.5513 35.0879 44.5286 35.1619 44.5286C35.2339 44.5286 35.2937 44.5513 35.3414 44.5958C35.389 44.64 35.4128 44.697 35.4128 44.7673C35.4128 44.8384 35.3885 44.8963 35.3398 44.94C35.2922 44.9829 35.2329 45.0043 35.1619 45.0043C35.09 45.0043 35.0302 44.9824 34.9825 44.9383C34.9359 44.8946 34.9126 44.8376 34.9126 44.7673Z" fill="white"/>
    <path d="M33.7095 44.5286H34.1114V46.5051H34.6741V46.8489C34.5133 46.8489 34.3526 46.8489 34.1918 46.8489C34.031 46.8489 33.8702 46.8489 33.7095 46.8489V44.5286Z" fill="white"/>
    <path d="M35.3636 46.8488H34.9617V45.2673H35.3636V46.8488Z" fill="white"/>
    <path d="M41.2576 46.8488H40.8557V45.2673H41.2576V46.8488Z" fill="white"/>
    <path d="M36.3129 46.8487C36.1228 46.8487 35.9651 46.7836 35.8396 46.6537C35.7141 46.5221 35.6514 46.3245 35.6514 46.061C35.6514 45.7953 35.7132 45.5977 35.8368 45.4678C35.9605 45.3363 36.1191 45.2703 36.3129 45.2703C36.4273 45.2703 36.5574 45.293 36.7032 45.338L36.6284 45.6363C36.5158 45.6084 36.4254 45.5947 36.3572 45.5947C36.2483 45.5947 36.1643 45.6303 36.1053 45.701C36.0481 45.77 36.0195 45.8926 36.0195 46.0696C36.0195 46.2466 36.0508 46.3696 36.1136 46.4386C36.1782 46.5076 36.2677 46.5418 36.3821 46.5418C36.4411 46.5418 36.5315 46.532 36.6533 46.5123L36.7004 46.7805C36.5546 46.826 36.4254 46.8487 36.3129 46.8487Z" fill="white"/>
    <path d="M37.1907 46.0961C37.1944 46.3914 37.3162 46.5388 37.5561 46.5388C37.6686 46.5388 37.7803 46.5161 37.8909 46.4711L37.9574 46.7514C37.8153 46.8161 37.6576 46.8487 37.4841 46.8487C37.0468 46.8487 36.8281 46.5744 36.8281 46.0254C36.8281 45.809 36.8826 45.629 36.9914 45.4854C37.1003 45.3418 37.2571 45.2703 37.462 45.2703C37.6262 45.2703 37.7526 45.3174 37.8412 45.4117C37.9316 45.5043 37.9768 45.6341 37.9768 45.8013C37.9768 45.8994 37.9648 45.998 37.9408 46.0961H37.1907ZM37.6668 45.872V45.8544C37.6668 45.6598 37.6022 45.5621 37.473 45.5621C37.318 45.5621 37.2248 45.6654 37.1935 45.872H37.6668Z" fill="white"/>
    <path d="M39.0143 45.3086C39.1749 45.3086 39.2838 45.3532 39.3409 45.4414C39.4 45.528 39.4295 45.6519 39.4295 45.8135V46.8489H39.042V45.8872C39.042 45.8105 39.03 45.7513 39.006 45.7102C38.9839 45.6669 38.9285 45.645 38.8399 45.645C38.7514 45.645 38.6711 45.6815 38.5991 45.7543V46.8489H38.2034V45.3352H38.53L38.5632 45.5036C38.6167 45.4505 38.684 45.405 38.7652 45.3677C38.8483 45.3283 38.9313 45.3086 39.0143 45.3086Z" fill="white"/>
    <path d="M42.434 45.3086C42.5946 45.3086 42.7034 45.3532 42.7605 45.4414C42.8198 45.528 42.8492 45.6519 42.8492 45.8135V46.8489H42.4617V45.8872C42.4617 45.8105 42.4497 45.7513 42.4257 45.7102C42.4036 45.6669 42.3482 45.645 42.2597 45.645C42.1711 45.645 42.0908 45.6815 42.0189 45.7543V46.8489H41.623V45.3352H41.9496L41.9829 45.5036C42.0364 45.4505 42.1037 45.405 42.1849 45.3677C42.268 45.3283 42.351 45.3086 42.434 45.3086Z" fill="white"/>
    <path d="M40.2256 45.5888C40.1001 45.5888 40.0374 45.6333 40.0374 45.7216C40.0374 45.7688 40.0586 45.8091 40.1011 45.8425C40.1435 45.8759 40.1942 45.9055 40.2533 45.9312C40.3142 45.9548 40.3741 45.9822 40.4332 46.0139C40.4941 46.043 40.5457 46.0863 40.5882 46.1438C40.6306 46.2008 40.6518 46.2706 40.6518 46.3529C40.6518 46.5003 40.6048 46.6203 40.5107 46.7129C40.4166 46.8033 40.2782 46.8488 40.0955 46.8488C40.0125 46.8488 39.9248 46.8389 39.8325 46.8192C39.7422 46.7995 39.6757 46.7768 39.6333 46.7515L39.7274 46.4562C39.8713 46.5076 40.0005 46.5329 40.1149 46.5329C40.2311 46.5329 40.2893 46.4849 40.2893 46.3885C40.2893 46.3473 40.268 46.3096 40.2256 46.2762C40.1831 46.2428 40.1315 46.2123 40.0706 46.1849C40.0116 46.1553 39.9516 46.124 39.8907 46.0906C39.8317 46.0572 39.7809 46.0096 39.7384 45.9488C39.696 45.8879 39.6748 45.8172 39.6748 45.7366C39.6748 45.5849 39.7219 45.4688 39.816 45.3882C39.9101 45.3076 40.0448 45.2673 40.2201 45.2673C40.3954 45.2673 40.5328 45.2978 40.6324 45.3586L40.5411 45.6509C40.4138 45.6098 40.3086 45.5888 40.2256 45.5888Z" fill="white"/>
    <path d="M43.6819 45.5936C43.5694 45.5936 43.491 45.6455 43.4467 45.7488C43.4036 45.8521 43.3819 45.9583 43.3819 46.0685C43.3819 46.1911 43.4019 46.3008 43.4415 46.3976C43.4812 46.4945 43.5613 46.5429 43.6819 46.5429C43.7199 46.5429 43.7595 46.5322 43.8008 46.5108C43.8439 46.4868 43.8835 46.4602 43.9197 46.4298V45.7068C43.8835 45.6742 43.8439 45.6476 43.8008 45.6258C43.7595 45.6043 43.7199 45.5936 43.6819 45.5936ZM44.2441 45.2966V46.8592C44.2441 47.0486 44.1946 47.2072 44.0958 47.3341C43.9982 47.4631 43.843 47.5278 43.6299 47.5278C43.5788 47.5278 43.5042 47.5115 43.407 47.4794C43.3094 47.4494 43.2284 47.4061 43.1641 47.3503L43.2608 47.0533C43.335 47.1005 43.3985 47.1348 43.4513 47.1566C43.5042 47.1781 43.5613 47.1888 43.6223 47.1888C43.7182 47.1888 43.7919 47.1588 43.843 47.0984C43.8942 47.0401 43.9197 46.9595 43.9197 46.8562V46.7756C43.8686 46.8142 43.814 46.8442 43.7561 46.8661C43.6985 46.8896 43.6448 46.9012 43.595 46.9012C43.4202 46.9012 43.2856 46.8219 43.1914 46.6625C43.0972 46.5031 43.0503 46.3051 43.0503 46.0685C43.0503 45.8315 43.0997 45.6335 43.1986 45.4741C43.2996 45.3146 43.4364 45.2354 43.6099 45.2354C43.6696 45.2354 43.7365 45.2525 43.8106 45.2868C43.8848 45.3193 43.9487 45.3656 44.0016 45.4256L44.0757 45.2966H44.2441Z" fill="white"/>
    <path d="M30.9155 46.5033L31.1602 45.2673H31.4827L31.1168 46.8488H30.7143L30.3552 45.2673H30.6777L30.9155 46.5033Z" fill="white"/>
    <path d="M25.7476 45.6144C25.6113 45.6144 25.5157 45.6616 25.4609 45.7563V46.8517H25.1118V45.3033H25.401L25.4284 45.4996C25.5248 45.3466 25.6479 45.2703 25.7975 45.2703C25.839 45.2703 25.8772 45.2754 25.9121 45.2853L25.8548 45.6324C25.8182 45.6204 25.7825 45.6144 25.7476 45.6144Z" fill="white"/>
    <path d="M29.6379 44.7673C29.6379 44.6979 29.6607 44.6408 29.7063 44.5958C29.753 44.5513 29.8133 44.5286 29.8873 44.5286C29.9593 44.5286 30.0191 44.5513 30.0667 44.5958C30.1144 44.64 30.1381 44.697 30.1381 44.7673C30.1381 44.8384 30.1138 44.8963 30.0652 44.94C30.0175 44.9829 29.9582 45.0043 29.8873 45.0043C29.8153 45.0043 29.7555 44.9824 29.7079 44.9383C29.6613 44.8946 29.6379 44.8376 29.6379 44.7673Z" fill="white"/>
    <path d="M30.0889 46.8488H29.687V45.2673H30.0889V46.8488Z" fill="white"/>
    <path d="M20.7135 46.8489H20.3115V44.5286H20.7135V46.8489Z" fill="white"/>
    <path d="M21.9254 45.3115C22.086 45.3115 22.1948 45.3561 22.2521 45.4444C22.3111 45.531 22.3406 45.6548 22.3406 45.816V46.8518H21.9531V45.8901C21.9531 45.8134 21.9411 45.7542 21.9172 45.7131C21.895 45.6698 21.8396 45.648 21.7511 45.648C21.6625 45.648 21.5823 45.6844 21.5103 45.7572V46.8518H21.1145V45.3381H21.4411L21.4743 45.5065C21.5278 45.4534 21.5952 45.408 21.6764 45.3707C21.7594 45.3312 21.8424 45.3115 21.9254 45.3115Z" fill="white"/>
    <path d="M32.053 46.0961C32.0567 46.3914 32.1785 46.5388 32.4183 46.5388C32.5309 46.5388 32.6425 46.5161 32.7533 46.4711L32.8197 46.7514C32.6776 46.8161 32.5198 46.8487 32.3464 46.8487C31.9091 46.8487 31.6904 46.5744 31.6904 46.0254C31.6904 45.809 31.7449 45.629 31.8537 45.4854C31.9626 45.3418 32.1194 45.2703 32.3242 45.2703C32.4885 45.2703 32.6149 45.3174 32.7034 45.4117C32.7938 45.5043 32.839 45.6341 32.839 45.8013C32.839 45.8994 32.8271 45.998 32.8031 46.0961H32.053ZM32.5291 45.872V45.8544C32.5291 45.6598 32.4645 45.5621 32.3353 45.5621C32.1803 45.5621 32.0871 45.6654 32.0558 45.872H32.5291Z" fill="white"/>
    <path d="M23.9769 46.0961C23.9805 46.3914 24.1023 46.5388 24.3422 46.5388C24.4548 46.5388 24.5664 46.5161 24.6771 46.4711L24.7435 46.7514C24.6015 46.8161 24.4437 46.8487 24.2703 46.8487C23.8329 46.8487 23.6143 46.5744 23.6143 46.0254C23.6143 45.809 23.6687 45.629 23.7776 45.4854C23.8864 45.3418 24.0433 45.2703 24.2481 45.2703C24.4123 45.2703 24.5387 45.3174 24.6273 45.4117C24.7177 45.5043 24.7629 45.6341 24.7629 45.8013C24.7629 45.8994 24.7509 45.998 24.727 46.0961H23.9769ZM24.4529 45.872V45.8544C24.4529 45.6598 24.3883 45.5621 24.2592 45.5621C24.1042 45.5621 24.011 45.6654 23.9796 45.872H24.4529Z" fill="white"/>
    <path d="M28.0231 46.8487C27.833 46.8487 27.6753 46.7836 27.5498 46.6537C27.4243 46.5221 27.3616 46.3245 27.3616 46.061C27.3616 45.7953 27.4234 45.5977 27.5471 45.4678C27.6707 45.3363 27.8294 45.2703 28.0231 45.2703C28.1375 45.2703 28.2676 45.293 28.4134 45.338L28.3386 45.6363C28.2261 45.6084 28.1356 45.5947 28.0674 45.5947C27.9585 45.5947 27.8746 45.6303 27.8155 45.701C27.7583 45.77 27.7297 45.8926 27.7297 46.0696C27.7297 46.2466 27.7611 46.3696 27.8238 46.4386C27.8884 46.5076 27.9779 46.5418 28.0923 46.5418C28.1513 46.5418 28.2418 46.532 28.3635 46.5123L28.4106 46.7805C28.2648 46.826 28.1356 46.8487 28.0231 46.8487Z" fill="white"/>
    <path d="M22.7147 46.3029V45.5328L22.4656 45.5143V45.2628L22.723 45.2383V44.8796L23.1105 44.8428V45.2353H23.5146L23.4924 45.5328H23.1077V46.3428C23.1077 46.4019 23.116 46.4448 23.1326 46.4713C23.1492 46.4962 23.1843 46.5082 23.2378 46.5082C23.2913 46.5082 23.3513 46.4992 23.4177 46.4808L23.4758 46.7842C23.3854 46.8275 23.2931 46.8489 23.199 46.8489C23.1068 46.8489 23.0367 46.8425 22.9887 46.8305C22.9426 46.8181 22.9038 46.8039 22.8724 46.7876C22.8429 46.7709 22.8171 46.7478 22.7949 46.7169C22.7747 46.6843 22.759 46.6556 22.7479 46.6312C22.7387 46.6063 22.7313 46.5716 22.7257 46.5266C22.7184 46.4653 22.7147 46.3908 22.7147 46.3029Z" fill="white"/>
    <path d="M28.7305 46.3027V45.5193H28.5618V45.2698H28.7388V44.8953H29.1263V45.2668L29.3797 45.2698V45.5193H29.1235V46.3426C29.1235 46.4017 29.1319 46.4445 29.1485 46.4711C29.1651 46.496 29.2001 46.508 29.2536 46.508C29.3072 46.508 29.3671 46.499 29.4336 46.4806L29.4917 46.7844C29.4013 46.8273 29.309 46.8487 29.2149 46.8487C29.1227 46.8487 29.0525 46.8427 29.0045 46.8303C28.9584 46.8178 28.9197 46.8037 28.8883 46.7874C28.8587 46.7707 28.8329 46.7475 28.8108 46.7167C28.7905 46.6841 28.7748 46.6554 28.7637 46.631C28.7545 46.6061 28.7471 46.5714 28.7416 46.5264C28.7342 46.4651 28.7305 46.3906 28.7305 46.3027Z" fill="white"/>
    <path d="M26.8127 46.8175C26.8019 46.7943 26.7911 46.7549 26.7803 46.6996C26.7118 46.7969 26.619 46.8458 26.5019 46.8458C26.3794 46.8458 26.2776 46.8033 26.1965 46.7189C26.1163 46.6349 26.0762 46.5256 26.0762 46.3915C26.0762 46.2321 26.1248 46.1086 26.2221 46.0212C26.3203 45.9342 26.4614 45.8896 26.6452 45.8879H26.7614V45.7653C26.7614 45.6968 26.7501 45.6488 26.7276 45.6205C26.7051 45.5922 26.6722 45.578 26.629 45.578C26.5334 45.578 26.4857 45.6363 26.4857 45.7525H26.1032C26.1032 45.6119 26.1537 45.4962 26.2546 45.4053C26.3564 45.3132 26.4848 45.2673 26.6397 45.2673C26.8001 45.2673 26.924 45.311 27.0114 45.398C27.0997 45.4846 27.1439 45.608 27.1439 45.7696V46.4858C27.1456 46.6169 27.1637 46.7198 27.1979 46.7935V46.8175H26.8127ZM26.5871 46.5333C26.6294 46.5333 26.6654 46.5243 26.6951 46.5068C26.7249 46.4888 26.747 46.4678 26.7614 46.4433V46.127H26.6695C26.6046 46.127 26.5533 46.1485 26.5154 46.1918C26.4785 46.2346 26.46 46.2925 26.46 46.3645C26.46 46.4772 26.5023 46.5333 26.5871 46.5333Z" fill="white"/>
    <path d="M19.4714 46.0595C19.4714 46.3333 19.4142 46.5343 19.2998 46.6624C19.1854 46.7889 19.035 46.8519 18.8487 46.8519C18.6623 46.8519 18.5138 46.7889 18.4031 46.6624C18.2942 46.5364 18.2397 46.3363 18.2397 46.0624C18.2397 45.7882 18.296 45.5885 18.4086 45.462C18.523 45.3339 18.6725 45.27 18.857 45.27C19.2666 45.27 19.4714 45.5332 19.4714 46.0595ZM19.095 46.0564C19.095 45.8752 19.0747 45.7517 19.0341 45.687C18.9935 45.6219 18.9336 45.5893 18.8542 45.5893C18.7767 45.5893 18.7168 45.6219 18.6743 45.687C18.6337 45.7517 18.6134 45.8769 18.6134 46.0624C18.6134 46.3779 18.6937 46.5356 18.8542 46.5356C18.9299 46.5356 18.9889 46.5009 19.0313 46.4319C19.0738 46.3612 19.095 46.2356 19.095 46.0564Z" fill="white"/>
    <path d="M12.6777 46.6715C12.5446 46.7915 12.4029 46.8519 12.2525 46.8519C12.1039 46.8519 12.0019 46.8077 11.9466 46.7195C11.893 46.629 11.8662 46.5017 11.8662 46.3376V45.27H12.2292V46.2622C12.2292 46.3427 12.2396 46.4036 12.2603 46.4456C12.281 46.488 12.3321 46.509 12.4133 46.509C12.4963 46.509 12.5732 46.4777 12.644 46.4156V45.27H13.0071V46.8519H12.7089L12.6777 46.6715Z" fill="white"/>
    <path d="M11.6165 46.7914C11.4758 46.8317 11.3448 46.8518 11.2236 46.8518C11.1042 46.8518 10.9999 46.8326 10.9108 46.7949C10.8235 46.7546 10.7424 46.6907 10.6676 46.6033C10.509 46.4177 10.4297 46.11 10.4297 45.6801C10.4297 45.4676 10.4529 45.2841 10.4992 45.1298C10.5455 44.973 10.6088 44.8521 10.689 44.7673C10.8387 44.6083 11.0196 44.5286 11.2316 44.5286C11.3653 44.5286 11.4998 44.5534 11.6352 44.6027L11.5738 44.9486C11.4722 44.9237 11.3777 44.9113 11.2904 44.9113C11.1461 44.9113 11.032 44.9687 10.9482 45.0827C10.8645 45.1946 10.8226 45.3926 10.8226 45.6767C10.8226 45.9587 10.8654 46.1593 10.9509 46.2776C11.0365 46.3941 11.155 46.4524 11.3065 46.4524C11.4116 46.4524 11.507 46.4434 11.5925 46.4254L11.6165 46.7914Z" fill="white"/>
    <path d="M13.9942 45.6142C13.8579 45.6142 13.7623 45.6613 13.7075 45.756V46.8519H13.3584V45.303H13.6476L13.675 45.4993C13.7714 45.3463 13.8944 45.27 14.044 45.27C14.0856 45.27 14.1238 45.2752 14.1587 45.285L14.1014 45.6322C14.0648 45.6202 14.0291 45.6142 13.9942 45.6142Z" fill="white"/>
    <path d="M14.999 46.8236C14.9882 46.8 14.9774 46.7606 14.9666 46.7053C14.8981 46.803 14.8053 46.8519 14.6882 46.8519C14.5657 46.8519 14.4638 46.8095 14.3827 46.725C14.3026 46.6402 14.2625 46.5309 14.2625 46.3963C14.2625 46.2365 14.3111 46.113 14.4084 46.0256C14.5066 45.9382 14.6477 45.8936 14.8314 45.8919H14.9477V45.7689C14.9477 45.7003 14.9364 45.6519 14.9139 45.624C14.8914 45.5957 14.8585 45.5816 14.8152 45.5816C14.7197 45.5816 14.6719 45.6399 14.6719 45.7564H14.2895C14.2895 45.6154 14.3399 45.4993 14.4409 45.408C14.5427 45.3159 14.6711 45.27 14.826 45.27C14.9864 45.27 15.1103 45.3137 15.1977 45.4012C15.286 45.4877 15.3301 45.6116 15.3301 45.7732V46.491C15.3319 46.6226 15.35 46.7254 15.3842 46.7996V46.8236H14.999ZM14.7733 46.5386C14.8157 46.5386 14.8517 46.53 14.8814 46.512C14.9112 46.494 14.9333 46.473 14.9477 46.4486V46.1314H14.8558C14.7909 46.1314 14.7395 46.1529 14.7017 46.1962C14.6647 46.2395 14.6463 46.2973 14.6463 46.3697C14.6463 46.4825 14.6886 46.5386 14.7733 46.5386Z" fill="white"/>
    <path d="M17.5717 46.8236C17.5609 46.8 17.5501 46.7606 17.5393 46.7053C17.4708 46.803 17.378 46.8519 17.2609 46.8519C17.1384 46.8519 17.0365 46.8095 16.9555 46.725C16.8753 46.6402 16.8352 46.5309 16.8352 46.3963C16.8352 46.2365 16.8838 46.113 16.9811 46.0256C17.0794 45.9382 17.2204 45.8936 17.4041 45.8919H17.5204V45.7689C17.5204 45.7003 17.5091 45.6519 17.4866 45.624C17.4641 45.5957 17.4312 45.5816 17.3879 45.5816C17.2924 45.5816 17.2447 45.6399 17.2447 45.7564H16.8622C16.8622 45.6154 16.9127 45.4993 17.0136 45.408C17.1154 45.3159 17.2438 45.27 17.3988 45.27C17.5591 45.27 17.683 45.3137 17.7704 45.4012C17.8587 45.4877 17.9028 45.6116 17.9028 45.7732V46.491C17.9047 46.6226 17.9227 46.7254 17.9569 46.7996V46.8236H17.5717ZM17.3461 46.5386C17.3884 46.5386 17.4244 46.53 17.4542 46.512C17.4839 46.494 17.506 46.473 17.5204 46.4486V46.1314H17.4285C17.3636 46.1314 17.3123 46.1529 17.2744 46.1962C17.2375 46.2395 17.219 46.2973 17.219 46.3697C17.219 46.4825 17.2614 46.5386 17.3461 46.5386Z" fill="white"/>
    <path d="M16.2358 46.8738C16.0436 46.8738 15.8948 46.8116 15.7892 46.6873C15.6853 46.5609 15.6333 46.3633 15.6333 46.0946C15.6333 45.9091 15.6601 45.7578 15.7136 45.6408C15.7672 45.5238 15.8412 45.4376 15.9357 45.3819C16.0318 45.3262 16.1421 45.2983 16.2665 45.2983C16.3547 45.2983 16.4311 45.3086 16.4957 45.3292C16.5618 45.3493 16.6193 45.3738 16.6682 45.4012L16.5642 45.7213C16.5091 45.6956 16.4571 45.6742 16.4083 45.6575C16.361 45.6408 16.3137 45.6322 16.2665 45.6322C16.0838 45.6322 15.9924 45.7856 15.9924 46.0916C15.9924 46.2438 16.016 46.3561 16.0633 46.4285C16.1121 46.5009 16.1799 46.5369 16.2665 46.5369C16.3405 46.5369 16.4059 46.5258 16.4626 46.5035C16.5193 46.4795 16.5744 46.4469 16.628 46.4062V46.7598C16.5744 46.8005 16.5177 46.8292 16.4579 46.8459C16.3996 46.8643 16.3255 46.8738 16.2358 46.8738ZM16.4886 47.1853C16.4886 47.2895 16.4626 47.37 16.4106 47.4275C16.3602 47.4849 16.2673 47.514 16.1318 47.514C16.0972 47.514 16.0656 47.511 16.0373 47.5055C16.0105 47.4999 15.9861 47.4935 15.9641 47.4862V47.2578C15.9861 47.265 16.0129 47.2719 16.0444 47.2775C16.0775 47.2826 16.1058 47.2856 16.1294 47.2856C16.1515 47.2856 16.1704 47.2792 16.1862 47.2663C16.2035 47.2552 16.2121 47.2338 16.2121 47.202C16.2121 47.1686 16.198 47.139 16.1696 47.1129C16.1412 47.0872 16.0916 47.0675 16.0208 47.0546L16.1106 46.8459H16.3327L16.3019 46.9295C16.3492 46.9479 16.3917 46.9775 16.4295 47.0186C16.4689 47.061 16.4886 47.1168 16.4886 47.1853Z" fill="white"/>
    <path d="M51.9925 52.1478C51.9925 52.4221 51.9354 52.6231 51.8207 52.7513C51.7065 52.8773 51.556 52.9403 51.3698 52.9403C51.1835 52.9403 51.0348 52.8773 50.924 52.7513C50.8153 52.6248 50.7607 52.4247 50.7607 52.1508C50.7607 51.877 50.817 51.6768 50.9295 51.5508C51.0442 51.4227 51.1933 51.3584 51.3779 51.3584C51.7875 51.3584 51.9925 51.6215 51.9925 52.1478ZM51.6161 52.1448C51.6161 51.9635 51.5957 51.8405 51.5552 51.7754C51.5147 51.7103 51.4546 51.6777 51.3753 51.6777C51.2978 51.6777 51.2377 51.7103 51.1955 51.7754C51.155 51.8405 51.1345 51.9657 51.1345 52.1508C51.1345 52.4663 51.2147 52.624 51.3753 52.624C51.4508 52.624 51.51 52.5893 51.5522 52.5207C51.5948 52.4495 51.6161 52.3244 51.6161 52.1448Z" fill="white"/>
    <path d="M45.1989 52.7598C45.0655 52.8803 44.924 52.9403 44.7736 52.9403C44.6248 52.9403 44.523 52.8961 44.4676 52.8078C44.4139 52.7178 44.3875 52.5905 44.3875 52.426V51.3584H44.7502V52.351C44.7502 52.4311 44.7608 52.4924 44.7813 52.5344C44.8021 52.5764 44.8533 52.5974 44.9343 52.5974C45.0174 52.5974 45.0941 52.5665 45.1653 52.5044V51.3584H45.528V52.9403H45.2301L45.1989 52.7598Z" fill="white"/>
    <path d="M44.1377 52.8799C43.997 52.9201 43.8657 52.9403 43.7447 52.9403C43.6254 52.9403 43.5209 52.9214 43.4319 52.8833C43.3445 52.843 43.2635 52.7791 43.1885 52.6921C43.03 52.5061 42.9507 52.1984 42.9507 51.769C42.9507 51.556 42.9741 51.3726 43.0202 51.2183C43.0666 51.0614 43.1297 50.9406 43.2102 50.8557C43.3598 50.6967 43.5405 50.6174 43.7528 50.6174C43.8862 50.6174 44.0209 50.6419 44.1564 50.6911L44.095 51.037C43.9932 51.0126 43.899 51.0001 43.8116 51.0001C43.6671 51.0001 43.5533 51.0571 43.4694 51.1711C43.3854 51.283 43.3436 51.4814 43.3436 51.7656C43.3436 52.0476 43.3867 52.2477 43.4719 52.3664C43.5576 52.4826 43.6761 52.5409 43.8274 52.5409C43.9327 52.5409 44.0281 52.5319 44.1138 52.5139L44.1377 52.8799Z" fill="white"/>
    <path d="M46.5155 51.7025C46.3791 51.7025 46.2837 51.7501 46.2287 51.8444V52.9403H45.8796V51.3918H46.169L46.1963 51.5881C46.2926 51.4351 46.4158 51.3584 46.5654 51.3584C46.6067 51.3584 46.6451 51.3635 46.68 51.3738L46.6225 51.721C46.5863 51.7085 46.5505 51.7025 46.5155 51.7025Z" fill="white"/>
    <path d="M47.5199 52.912C47.5093 52.8888 47.4982 52.849 47.4875 52.7937C47.4189 52.8914 47.3264 52.9403 47.2092 52.9403C47.0865 52.9403 46.9846 52.8978 46.9036 52.8134C46.8235 52.729 46.7834 52.6193 46.7834 52.4851C46.7834 52.3253 46.832 52.2014 46.9292 52.114C47.0277 52.027 47.1687 51.982 47.3524 51.9803H47.4688V51.8577C47.4688 51.7891 47.4573 51.7407 47.4347 51.7124C47.4121 51.6841 47.3793 51.67 47.3362 51.67C47.2408 51.67 47.193 51.7283 47.193 51.8448H46.8103C46.8103 51.7038 46.861 51.5877 46.9616 51.4968C47.0635 51.4047 47.1922 51.3584 47.3469 51.3584C47.5071 51.3584 47.6312 51.4021 47.7185 51.4895C47.8068 51.5761 47.8511 51.7 47.8511 51.862V52.5794C47.8528 52.711 47.8707 52.8138 47.9052 52.888V52.912H47.5199ZM47.2945 52.6274C47.3367 52.6274 47.3725 52.6184 47.4023 52.6004C47.4321 52.5828 47.4543 52.5614 47.4688 52.537V52.2198H47.3767C47.3119 52.2198 47.2604 52.2417 47.2224 52.285C47.1858 52.3278 47.167 52.3857 47.167 52.4581C47.167 52.5708 47.2097 52.6274 47.2945 52.6274Z" fill="white"/>
    <path d="M50.0929 52.912C50.0818 52.8888 50.0712 52.849 50.0605 52.7937C49.9919 52.8914 49.899 52.9403 49.7818 52.9403C49.6595 52.9403 49.5576 52.8978 49.4766 52.8134C49.3965 52.729 49.3564 52.6193 49.3564 52.4851C49.3564 52.3253 49.405 52.2014 49.5022 52.114C49.6007 52.027 49.7413 51.982 49.9254 51.9803H50.0414V51.8577C50.0414 51.7891 50.0303 51.7407 50.0077 51.7124C49.9851 51.6841 49.9523 51.67 49.9092 51.67C49.8133 51.67 49.7656 51.7283 49.7656 51.8448H49.3833C49.3833 51.7038 49.4336 51.5877 49.5346 51.4968C49.6365 51.4047 49.7647 51.3584 49.9199 51.3584C50.0801 51.3584 50.2042 51.4021 50.2915 51.4895C50.3798 51.5761 50.4241 51.7 50.4241 51.862V52.5794C50.4258 52.711 50.4437 52.8138 50.4782 52.888V52.912H50.0929ZM49.867 52.6274C49.9097 52.6274 49.9455 52.6184 49.9753 52.6004C50.0051 52.5828 50.0269 52.5614 50.0414 52.537V52.2198H49.9497C49.8845 52.2198 49.8334 52.2417 49.7954 52.285C49.7588 52.3278 49.74 52.3857 49.74 52.4581C49.74 52.5708 49.7826 52.6274 49.867 52.6274Z" fill="white"/>
    <path d="M48.757 52.962C48.5647 52.962 48.416 52.8998 48.3103 52.7755C48.2063 52.6495 48.1543 52.452 48.1543 52.1828C48.1543 51.9972 48.1811 51.846 48.2348 51.729C48.2881 51.6124 48.3623 51.5258 48.4569 51.4701C48.5528 51.4148 48.6632 51.387 48.7876 51.387C48.8759 51.387 48.9522 51.3968 49.0169 51.4174C49.083 51.438 49.1405 51.462 49.1891 51.4898L49.0851 51.81C49.0301 51.7838 48.9781 51.7624 48.9296 51.7457C48.8823 51.729 48.8349 51.7208 48.7876 51.7208C48.6048 51.7208 48.5136 51.8738 48.5136 52.1798C48.5136 52.332 48.537 52.4442 48.5843 52.5167C48.6333 52.5891 48.7011 52.6251 48.7876 52.6251C48.8618 52.6251 48.927 52.6144 48.9837 52.5921C49.0404 52.5677 49.0958 52.5355 49.1491 52.4944V52.848C49.0958 52.8887 49.0387 52.9174 48.979 52.9341C48.9206 52.953 48.8469 52.962 48.757 52.962ZM49.0097 53.274C49.0097 53.3777 48.9837 53.4583 48.9317 53.5161C48.8814 53.5735 48.7885 53.6022 48.653 53.6022C48.6184 53.6022 48.5869 53.5993 48.5583 53.5937C48.5315 53.5881 48.5072 53.5817 48.485 53.5744V53.346C48.5072 53.3537 48.534 53.3601 48.5656 53.3657C48.5988 53.3712 48.627 53.3738 48.6504 53.3738C48.6726 53.3738 48.6917 53.3674 48.7075 53.3545C48.7246 53.3434 48.7335 53.322 48.7335 53.2907C48.7335 53.2573 48.719 53.2273 48.6909 53.2015C48.6623 53.1754 48.6129 53.1561 48.5417 53.1428L48.6316 52.9341H48.8537L48.823 53.0177C48.8703 53.0361 48.9129 53.0661 48.9509 53.1068C48.9901 53.1497 49.0097 53.205 49.0097 53.274Z" fill="white"/>
    <path d="M42.2834 50.9208C42.2834 50.9208 42.284 50.9208 42.177 50.9208C42.0699 50.9208 41.9989 50.9401 41.9638 50.9782C41.9288 51.0151 41.9113 51.0755 41.9113 51.1604L41.9112 51.3378L42.1855 51.3404V51.5774H41.9112L41.9113 52.9402H41.5238L41.5237 51.5774H41.2554V51.3404H41.5237L41.5265 51.1282C41.5265 50.9568 41.5782 50.8321 41.6815 50.7537C41.7848 50.6757 41.9454 50.6362 42.1631 50.6362H42.2834V50.9208Z" fill="white"/>
    <path d="M41.1404 52.1478C41.1404 52.4221 41.0831 52.6231 40.9687 52.7513C40.8544 52.8773 40.7039 52.9403 40.5176 52.9403C40.3312 52.9403 40.1827 52.8773 40.072 52.7513C39.9631 52.6248 39.9087 52.4247 39.9087 52.1508C39.9087 51.877 39.965 51.6768 40.0775 51.5508C40.1919 51.4227 40.3414 51.3584 40.5259 51.3584C40.9355 51.3584 41.1404 51.6215 41.1404 52.1478ZM40.764 52.1448C40.764 51.9635 40.7436 51.8405 40.703 51.7754C40.6624 51.7103 40.6025 51.6777 40.5231 51.6777C40.4456 51.6777 40.3857 51.7103 40.3432 51.7754C40.3026 51.8405 40.2823 51.9657 40.2823 52.1508C40.2823 52.4663 40.3626 52.624 40.5231 52.624C40.5988 52.624 40.6578 52.5893 40.7003 52.5207C40.7427 52.4495 40.764 52.3244 40.764 52.1448Z" fill="white"/>
    <path d="M33.5212 51.5951C33.5652 51.5437 33.6254 51.4987 33.7016 51.4593C33.7795 51.4199 33.8617 51.4001 33.948 51.4001C34.0344 51.4001 34.1014 51.4169 34.1488 51.4503C34.1962 51.4837 34.2343 51.5351 34.2631 51.6041C34.3089 51.5489 34.3707 51.5017 34.4486 51.4623C34.5282 51.4207 34.6079 51.4001 34.6875 51.4001C34.8331 51.4001 34.9314 51.4443 34.9822 51.533C35.0347 51.62 35.061 51.7439 35.061 51.9054V52.9434H34.7052V51.9796C34.7052 51.8536 34.6824 51.7786 34.6367 51.755C34.6146 51.743 34.585 51.737 34.5477 51.737C34.4528 51.737 34.3724 51.7734 34.3064 51.8463C34.308 51.8604 34.3089 51.881 34.3089 51.9084V52.9434H33.9532V51.9796C33.9532 51.8536 33.9303 51.7786 33.8845 51.755C33.8625 51.743 33.8329 51.737 33.7956 51.737C33.7008 51.737 33.6203 51.7734 33.5542 51.8463V52.9434H33.1985V51.4267H33.4907L33.5212 51.5951Z" fill="white"/>
    <path d="M25.1895 50.908C25.2725 50.8249 25.3602 50.7649 25.4524 50.7276C25.5466 50.6907 25.6573 50.6719 25.7846 50.6719C25.9119 50.6719 26.0632 50.7006 26.2385 50.7572L26.1804 51.0983C26.0568 51.0632 25.9276 51.0456 25.7929 51.0456C25.6582 51.0456 25.5475 51.1013 25.4608 51.2127C25.374 51.322 25.3307 51.5132 25.3307 51.7866C25.3307 52.2957 25.4737 52.5503 25.7597 52.5503C25.8169 52.5503 25.8769 52.5439 25.9396 52.5306V52.0167H25.6794V51.6726H26.3022V52.7963C26.0992 52.8923 25.8925 52.9403 25.6822 52.9403C25.4718 52.9403 25.2947 52.8499 25.1508 52.6682C25.0069 52.4847 24.9312 52.1942 24.9238 51.7964C24.9238 51.5886 24.9478 51.4094 24.9958 51.2586C25.0438 51.1056 25.1083 50.989 25.1895 50.908Z" fill="white"/>
    <path d="M27.7248 52.1512C27.7248 52.4251 27.6677 52.6265 27.5533 52.7547C27.4389 52.8807 27.2885 52.9437 27.1021 52.9437C26.9157 52.9437 26.7672 52.8807 26.6565 52.7547C26.5476 52.6282 26.4932 52.4281 26.4932 52.1542C26.4932 51.8804 26.5495 51.6802 26.662 51.5542C26.7764 51.4261 26.9259 51.3618 27.1104 51.3618C27.5201 51.3618 27.7248 51.625 27.7248 52.1512ZM27.3484 52.1482C27.3484 51.967 27.3281 51.844 27.2876 51.7788C27.2469 51.7137 27.187 51.6811 27.1076 51.6811C27.0301 51.6811 26.9702 51.7137 26.9277 51.7788C26.8871 51.844 26.8668 51.9691 26.8668 52.1542C26.8668 52.4697 26.9471 52.6274 27.1076 52.6274C27.1833 52.6274 27.2423 52.5927 27.2848 52.5237C27.3272 52.453 27.3484 52.3278 27.3484 52.1482Z" fill="white"/>
    <path d="M28.4761 52.5951L28.7208 51.3586H29.0432L28.6773 52.9401H28.2748L27.9158 51.3586H28.2382L28.4761 52.5951Z" fill="white"/>
    <path d="M29.5967 52.1881C29.6004 52.483 29.7222 52.6304 29.9621 52.6304C30.0746 52.6304 30.1863 52.6081 30.297 52.5627L30.3634 52.843C30.2213 52.9077 30.0636 52.9402 29.8901 52.9402C29.4528 52.9402 29.2341 52.666 29.2341 52.1174C29.2341 51.901 29.2886 51.721 29.3975 51.5774C29.5063 51.4338 29.6631 51.3618 29.868 51.3618C30.0322 51.3618 30.1586 51.409 30.2471 51.5037C30.3376 51.5958 30.3828 51.7257 30.3828 51.8928C30.3828 51.9914 30.3708 52.0895 30.3468 52.1881H29.5967ZM30.0728 51.964V51.946C30.0728 51.7514 30.0082 51.6541 29.879 51.6541C29.7241 51.6541 29.6308 51.7574 29.5995 51.964H30.0728Z" fill="white"/>
    <path d="M35.7991 52.1915C35.8028 52.4864 35.9246 52.6338 36.1645 52.6338C36.277 52.6338 36.3887 52.6111 36.4994 52.5661L36.5658 52.8464C36.4237 52.9111 36.266 52.9437 36.0925 52.9437C35.6552 52.9437 35.4365 52.6694 35.4365 52.1204C35.4365 51.9044 35.491 51.7244 35.5998 51.5808C35.7087 51.4372 35.8655 51.3652 36.0704 51.3652C36.2346 51.3652 36.361 51.4124 36.4496 51.5071C36.54 51.5992 36.5852 51.7291 36.5852 51.8962C36.5852 51.9948 36.5732 52.0929 36.5492 52.1915H35.7991ZM36.2752 51.9669V51.9494C36.2752 51.7548 36.2106 51.6575 36.0814 51.6575C35.9264 51.6575 35.8332 51.7608 35.8019 51.9669H36.2752Z" fill="white"/>
    <path d="M31.3325 51.7028C31.1962 51.7028 31.1007 51.7499 31.0458 51.8446V52.9401H30.6968V51.3921H30.986L31.0134 51.5884C31.1098 51.4354 31.2328 51.3586 31.3824 51.3586C31.424 51.3586 31.4622 51.3638 31.4971 51.3741L31.4398 51.7208C31.4032 51.7088 31.3675 51.7028 31.3325 51.7028Z" fill="white"/>
    <path d="M32.499 51.4001C32.6595 51.4001 32.7684 51.4443 32.8256 51.5326C32.8846 51.6191 32.9141 51.7434 32.9141 51.9046V52.94H32.5267V51.9783C32.5267 51.9016 32.5147 51.8424 32.4907 51.8013C32.4685 51.758 32.4132 51.7361 32.3246 51.7361C32.236 51.7361 32.1557 51.7726 32.0838 51.8454V52.94H31.688V51.4267H32.0146L32.0478 51.5947C32.1013 51.5416 32.1687 51.4966 32.2499 51.4589C32.3329 51.4199 32.4159 51.4001 32.499 51.4001Z" fill="white"/>
    <path d="M37.6518 51.4001C37.8124 51.4001 37.9212 51.4443 37.9784 51.5326C38.0375 51.6191 38.067 51.7434 38.067 51.9046V52.94H37.6795V51.9783C37.6795 51.9016 37.6675 51.8424 37.6435 51.8013C37.6214 51.758 37.566 51.7361 37.4774 51.7361C37.3889 51.7361 37.3086 51.7726 37.2366 51.8454V52.94H36.8408V51.4267H37.1674L37.2007 51.5947C37.2542 51.5416 37.3215 51.4966 37.4027 51.4589C37.4858 51.4199 37.5688 51.4001 37.6518 51.4001Z" fill="white"/>
    <path d="M38.4915 52.3942V51.6112H38.3228V51.3614H38.4998V50.9868H38.8873V51.3584L39.1406 51.3614V51.6112H38.8845V52.4341C38.8845 52.4932 38.8928 52.5365 38.9094 52.5631C38.926 52.5875 38.9611 52.6 39.0146 52.6C39.0681 52.6 39.1281 52.5905 39.1945 52.5721L39.2526 52.876C39.1622 52.9188 39.07 52.9402 38.9759 52.9402C38.8836 52.9402 38.8135 52.9342 38.7655 52.9218C38.7194 52.9098 38.6806 52.8952 38.6493 52.879C38.6197 52.8627 38.5939 52.8391 38.5717 52.8082C38.5515 52.7757 38.5358 52.747 38.5247 52.7225C38.5155 52.6981 38.5081 52.6634 38.5026 52.6184C38.4952 52.5567 38.4915 52.4821 38.4915 52.3942Z" fill="white"/>
    <path d="M17.1471 52.883C17.0063 52.9233 16.8753 52.9435 16.7541 52.9435C16.6347 52.9435 16.5305 52.9246 16.4413 52.8865C16.3541 52.8462 16.273 52.7823 16.1981 52.6949C16.0395 52.5093 15.9602 52.2016 15.9602 51.7718C15.9602 51.5592 15.9834 51.3757 16.0297 51.2215C16.076 51.0646 16.1393 50.9437 16.2195 50.8589C16.3692 50.6999 16.5501 50.6206 16.7621 50.6206C16.8958 50.6206 17.0304 50.645 17.1658 50.6943L17.1043 51.0402C17.0027 51.0153 16.9083 51.0033 16.821 51.0033C16.6766 51.0033 16.5626 51.0603 16.4788 51.1743C16.395 51.2862 16.3532 51.4842 16.3532 51.7687C16.3532 52.0507 16.3959 52.2509 16.4815 52.3696C16.567 52.4857 16.6855 52.544 16.837 52.544C16.9421 52.544 17.0375 52.535 17.123 52.517L17.1471 52.883Z" fill="white"/>
    <path d="M17.6438 52.1915C17.6475 52.4864 17.7693 52.6338 18.0092 52.6338C18.1217 52.6338 18.2333 52.6111 18.3441 52.5661L18.4105 52.8464C18.2684 52.9111 18.1106 52.9437 17.9372 52.9437C17.4999 52.9437 17.2812 52.6694 17.2812 52.1204C17.2812 51.9044 17.3357 51.7244 17.4445 51.5808C17.5534 51.4372 17.7102 51.3652 17.9151 51.3652C18.0793 51.3652 18.2057 51.4124 18.2942 51.5071C18.3846 51.5992 18.4299 51.7291 18.4299 51.8962C18.4299 51.9948 18.4179 52.0929 18.3939 52.1915H17.6438ZM18.1199 51.9669V51.9494C18.1199 51.7548 18.0553 51.6575 17.9261 51.6575C17.7711 51.6575 17.678 51.7608 17.6466 51.9669H18.1199Z" fill="white"/>
    <path d="M19.5048 51.4038C19.6654 51.4038 19.7742 51.448 19.8314 51.5362C19.8905 51.6228 19.92 51.7467 19.92 51.9082V52.9437H19.5325V51.982C19.5325 51.9052 19.5205 51.8461 19.4965 51.8049C19.4744 51.7617 19.419 51.7398 19.3305 51.7398C19.2419 51.7398 19.1616 51.7762 19.0897 51.8491V52.9437H18.6938V51.4304H19.0204L19.0537 51.5984C19.1072 51.5452 19.1745 51.4998 19.2557 51.4625C19.3388 51.4231 19.4218 51.4038 19.5048 51.4038Z" fill="white"/>
    <path d="M20.3507 52.3974V51.6144H20.1819V51.3646H20.3589V50.99H20.7464V51.3616L20.9998 51.3646V51.6144H20.7437V52.4373C20.7437 52.4964 20.752 52.5397 20.7686 52.5663C20.7852 52.5907 20.8203 52.6031 20.8738 52.6031C20.9273 52.6031 20.9872 52.5937 21.0537 52.5753L21.1118 52.8791C21.0214 52.922 20.9291 52.9434 20.835 52.9434C20.7428 52.9434 20.6726 52.9374 20.6247 52.925C20.5786 52.9126 20.5398 52.8984 20.5084 52.8821C20.4789 52.8659 20.453 52.8423 20.4309 52.8114C20.4106 52.7788 20.3949 52.7501 20.3839 52.7257C20.3746 52.7013 20.3672 52.6661 20.3617 52.6211C20.3543 52.5598 20.3507 52.4853 20.3507 52.3974Z" fill="white"/>
    <path d="M21.9246 51.7267C21.7883 51.7267 21.6927 51.7739 21.6379 51.8686V52.964H21.2888V51.416H21.578L21.6054 51.6123C21.7019 51.4593 21.8249 51.3826 21.9744 51.3826C22.016 51.3826 22.0542 51.3877 22.0891 51.398L22.0318 51.7447C21.9952 51.7327 21.9595 51.7267 21.9246 51.7267Z" fill="white"/>
    <path d="M22.9858 52.9363C22.975 52.9127 22.9642 52.8733 22.9534 52.818C22.8849 52.9153 22.7921 52.9642 22.675 52.9642C22.5525 52.9642 22.4506 52.9222 22.3695 52.8377C22.2894 52.7533 22.2493 52.644 22.2493 52.5099C22.2493 52.3505 22.2979 52.227 22.3952 52.14C22.4934 52.0526 22.6344 52.008 22.8182 52.0063H22.9345V51.8837C22.9345 51.8156 22.9232 51.7672 22.9007 51.7389C22.8782 51.711 22.8453 51.6969 22.802 51.6969C22.7065 51.6969 22.6588 51.7547 22.6588 51.8713H22.2763C22.2763 51.7307 22.3268 51.6146 22.4277 51.5237C22.5295 51.432 22.6579 51.3857 22.8128 51.3857C22.9732 51.3857 23.0971 51.4295 23.1845 51.5169C23.2728 51.603 23.3169 51.7269 23.3169 51.888V52.6042C23.3187 52.7353 23.3368 52.8382 23.371 52.9123V52.9363H22.9858ZM22.7601 52.6522C22.8025 52.6522 22.8385 52.6432 22.8682 52.6252C22.898 52.6076 22.9201 52.5862 22.9345 52.5617V52.2455H22.8426C22.7777 52.2455 22.7264 52.2669 22.6885 52.3102C22.6516 52.3535 22.6331 52.4109 22.6331 52.4833C22.6331 52.5956 22.6754 52.6522 22.7601 52.6522Z" fill="white"/>
    <path d="M24.0616 52.9403H23.7417V50.6719H24.0616V52.9403Z" fill="white"/>
    <path d="M12.8736 51.53C12.9223 51.4795 12.9799 51.437 13.0466 51.4019C13.1131 51.3668 13.1806 51.3492 13.2488 51.3492C13.317 51.3492 13.3763 51.3638 13.4266 51.392C13.477 51.4182 13.5152 51.4589 13.5412 51.5137C13.5883 51.6123 13.6118 51.7447 13.6118 51.911V52.94H13.2561V51.9933C13.2561 51.8532 13.2342 51.77 13.1903 51.7435C13.1692 51.7306 13.1407 51.7238 13.105 51.7238C13.0141 51.7238 12.9369 51.7645 12.8736 51.8455V52.94H12.5325V50.6206H12.8736V51.53Z" fill="white"/>
    <path d="M14.376 52.1915C14.3797 52.4864 14.5015 52.6338 14.7414 52.6338C14.8539 52.6338 14.9656 52.6111 15.0763 52.5661L15.1427 52.8464C15.0006 52.9111 14.8429 52.9437 14.6694 52.9437C14.2321 52.9437 14.0134 52.6694 14.0134 52.1204C14.0134 51.9044 14.0679 51.7244 14.1767 51.5808C14.2856 51.4372 14.4424 51.3652 14.6473 51.3652C14.8115 51.3652 14.9379 51.4124 15.0265 51.5071C15.1169 51.5992 15.1621 51.7291 15.1621 51.8962C15.1621 51.9948 15.1501 52.0929 15.1261 52.1915H14.376ZM14.8521 51.9669V51.9494C14.8521 51.7548 14.7875 51.6575 14.6584 51.6575C14.5033 51.6575 14.4102 51.7608 14.3788 51.9669H14.8521Z" fill="white"/>
    <path d="M11.5694 52.3974V51.6144H11.4006V51.3646H11.5777V50.99H11.9652V51.3616L12.2186 51.3646V51.6144H11.9624V52.4373C11.9624 52.4964 11.9707 52.5397 11.9873 52.5663C12.0039 52.5907 12.039 52.6031 12.0925 52.6031C12.146 52.6031 12.206 52.5937 12.2724 52.5753L12.3305 52.8791C12.2401 52.922 12.1479 52.9434 12.0537 52.9434C11.9615 52.9434 11.8914 52.9374 11.8434 52.925C11.7973 52.9126 11.7585 52.8984 11.7271 52.8821C11.6976 52.8659 11.6718 52.8423 11.6497 52.8114C11.6294 52.7788 11.6137 52.7501 11.6026 52.7257C11.5934 52.7013 11.586 52.6661 11.5805 52.6211C11.5731 52.5598 11.5694 52.4853 11.5694 52.3974Z" fill="white"/>
    <path d="M9.77192 53.5543C9.63604 53.55 9.58878 53.5295 9.58878 53.5295L9.63336 53.2303C9.63336 53.2303 9.72734 53.2303 9.74008 53.2303C9.81935 53.2303 9.87527 53.2089 9.90779 53.1656C9.9418 53.1245 9.97223 53.0216 9.99913 52.857L9.58447 51.3018H9.88443L10.1286 52.3942L10.3519 51.3018H10.6402L10.2879 52.7675C10.2143 53.076 10.1442 53.2839 10.0777 53.3906C10.0126 53.4999 9.90779 53.5586 9.77192 53.5543Z" fill="white"/>
    <path d="M8.49554 50.6206L8.4831 51.4396C8.51792 51.4028 8.56433 51.3715 8.62234 51.3453C8.68201 51.3175 8.74167 51.3033 8.80134 51.3033C8.93726 51.3033 9.04914 51.3715 9.13698 51.5082C9.22482 51.6427 9.28116 51.7353 9.28116 51.9869C9.28116 52.2972 9.23313 52.5346 9.13698 52.6996C9.04083 52.862 8.88671 52.9435 8.67455 52.9435C8.58338 52.9435 8.48561 52.9315 8.38119 52.9079C8.27673 52.886 8.19886 52.8599 8.14746 52.8295V50.6206H8.49554ZM8.62481 52.5758C8.7392 52.5758 8.81873 52.5303 8.86348 52.439C8.90823 52.3482 8.93061 52.2157 8.93061 52.0422C8.93061 51.8686 8.89997 51.8476 8.86348 51.7782C8.8287 51.7088 8.77483 51.674 8.70191 51.674C8.62894 51.674 8.55602 51.7032 8.4831 51.7619L8.49554 52.5595C8.54029 52.5706 8.58338 52.5758 8.62481 52.5758Z" fill="white"/>
    <path d="M10.4239 12.1533H12.4421V12.8108H9.64893V7.38818H10.4239V12.1533Z" fill="white"/>
    <path d="M13.9383 7.38818V12.8108H13.1633V7.38818H13.9383Z" fill="white"/>
    <path d="M17.2393 12.9163C15.6893 12.9163 14.9143 11.9747 14.9143 10.0914C14.9143 9.1173 15.1107 8.40566 15.5036 7.95647C15.9019 7.50729 16.4481 7.28271 17.1424 7.28271C17.5084 7.28271 17.9147 7.34494 18.3614 7.4694L18.2161 8.07823C17.8555 7.99706 17.538 7.95647 17.2635 7.95647C16.7684 7.95647 16.3809 8.11611 16.101 8.4354C15.8266 8.75469 15.6893 9.29589 15.6893 10.0589C15.6893 11.5201 16.2571 12.2507 17.3927 12.2507C17.6672 12.2507 17.9632 12.2182 18.2807 12.1533L18.3856 12.7621C17.9605 12.8649 17.5783 12.9163 17.2393 12.9163Z" fill="white"/>
    <path d="M20.0362 12.1533H22.3289V12.8108H19.2612V7.38818H22.2562V8.0457H20.0362V9.68546H22.1271V10.3268H20.0362V12.1533Z" fill="white"/>
    <path d="M27.3482 12.8108H26.557L24.0061 8.41911C24.0276 8.63018 24.0383 8.85746 24.0383 9.10101V12.8108H23.3037V7.38818H24.0948L26.6458 11.7798C26.6243 11.5688 26.6136 11.3415 26.6136 11.0979V7.38818H27.3482V12.8108Z" fill="white"/>
    <path d="M31.5474 11.3983C31.5474 11.8367 31.3913 12.1993 31.0792 12.4861C30.7671 12.7729 30.3554 12.9163 29.844 12.9163C29.5696 12.9163 29.2762 12.8866 28.9641 12.8271C28.6574 12.7675 28.4098 12.6918 28.2214 12.5997L28.4313 11.9097C28.9587 12.1208 29.3974 12.2263 29.7472 12.2263C30.097 12.2263 30.3607 12.1506 30.5383 11.9991C30.7159 11.8421 30.8047 11.6446 30.8047 11.4065C30.8047 11.1684 30.7078 10.9654 30.5141 10.7976C30.3204 10.6299 30.0674 10.4702 29.7553 10.3187C29.4485 10.1618 29.2413 10.0508 29.1336 9.98589C29.026 9.92091 28.9022 9.8235 28.7623 9.69364C28.4932 9.46093 28.3587 9.1254 28.3587 8.68706C28.3587 8.24871 28.5121 7.90504 28.8188 7.65613C29.1256 7.40717 29.4996 7.28271 29.9409 7.28271C30.3876 7.28271 30.8451 7.36929 31.3133 7.54247L31.1034 8.19189C30.6944 8.04574 30.3311 7.97271 30.0136 7.97271C29.7014 7.97271 29.47 8.03764 29.3193 8.1675C29.174 8.292 29.1014 8.45704 29.1014 8.66271C29.1014 8.86834 29.1875 9.04423 29.3597 9.19033C29.5319 9.33103 29.7579 9.47717 30.0378 9.62871C30.3177 9.77481 30.5222 9.89117 30.6513 9.97774C30.7859 10.0644 30.9312 10.1753 31.0873 10.3106C31.3941 10.592 31.5474 10.9546 31.5474 11.3983Z" fill="white"/>
    <path d="M33.1964 12.1533H35.4891V12.8108H32.4214V7.38818H35.4164V8.0457H33.1964V9.68546H35.2872V10.3268H33.1964V12.1533Z" fill="white"/>
    <path d="M37.2386 8.0457V12.1533H37.9086C38.5437 12.1533 38.9743 11.9882 39.2003 11.6581C39.4263 11.328 39.5394 10.8084 39.5394 10.0995C39.5394 9.39055 39.4263 8.871 39.2003 8.54087C38.9743 8.21078 38.5437 8.0457 37.9086 8.0457H37.2386ZM37.8521 12.8108H36.4636V7.38818H37.8521C38.541 7.38818 39.02 7.46126 39.2891 7.60736C39.978 7.95913 40.3224 8.79253 40.3224 10.1076C40.3224 11.4172 39.978 12.2479 39.2891 12.5997C39.0254 12.7404 38.5464 12.8108 37.8521 12.8108Z" fill="white"/>
    <path d="M46.0164 8.76008C46.0164 9.26336 45.8093 9.62593 45.3946 9.84784C45.7394 9.9777 45.9815 10.1536 46.1213 10.3755C46.2666 10.5919 46.3395 10.8761 46.3395 11.2278C46.3395 11.7203 46.1912 12.1072 45.8954 12.3887C45.5992 12.6701 45.1555 12.8108 44.5631 12.8108H42.9243V7.38818H43.9174C44.2349 7.38818 44.4663 7.39088 44.6117 7.39628C45.548 7.42877 46.0164 7.88336 46.0164 8.76008ZM43.6996 7.97267V9.59618H44.4906C44.7276 9.57994 44.9104 9.49877 45.0396 9.35267C45.1687 9.20113 45.2335 9.02524 45.2335 8.82501C45.2335 8.61934 45.2118 8.46784 45.1687 8.37043C45.1312 8.27301 45.0826 8.19724 45.0234 8.14311C44.9697 8.08898 44.8861 8.0484 44.7732 8.02135C44.601 7.98887 44.3696 7.97267 44.0789 7.97267H43.6996ZM44.4101 12.1533C45.1742 12.1533 45.5561 11.8339 45.5561 11.1954C45.5561 10.8707 45.4487 10.6244 45.2335 10.4567C45.0613 10.2835 44.7544 10.1969 44.3129 10.1969H43.6996V12.1533H44.4101Z" fill="white"/>
    <path d="M48.9417 12.8108H48.1669V10.5784L46.4714 7.38818H47.3434L48.5543 9.94526L49.7975 7.38818H50.6129L48.9417 10.5784V12.8108Z" fill="white"/>
</svg>
