<svg width="159" height="151" viewBox="0 0 159 151" fill="none" xmlns="http://www.w3.org/2000/svg">
<path fill-rule="evenodd" clip-rule="evenodd" d="M0 0H159L98.9416 57.0366C100.241 59.5937 101 62.6786 101 66C101 72.8146 97.8048 78.6341 93.3031 80.9406C87.405 95.5947 72.48 106 55 106C52.6077 106 50.2632 105.805 47.9832 105.431L0 151V0Z" fill="black"/>
<g clip-path="url(#clip0)">
<path d="M55.7174 8.72898C47.6417 14.7989 49.0455 24.1078 49.0455 24.1078C49.0455 24.1078 43.9685 11.008 37.3754 3C36.4845 13.3094 39.7361 26.9709 39.7361 26.9709C39.7361 26.9709 35.6076 18.5018 25.4958 18.0281C33.8835 22.8279 37.1365 31.4605 37.8798 33.7758C42.8775 30.7088 48.5919 28.9882 54.4611 28.7832C53.8091 26.6244 51.4568 17.532 55.7174 8.72898Z" fill="#F68B2A"/>
<path d="M42.1446 88.8592L36.84 74.9741C38.1651 74.5032 39.493 74.186 40.8897 73.7822L43.9812 83.5634L44.1484 83.5564L45.8346 72.3318L49.9884 71.1399L53.4775 80.8135L53.6559 80.7869L54.8335 69.7482C56.1572 69.3388 57.4668 68.9685 58.917 68.5717L56.2766 84.7581L51.7167 86.0827C50.5799 83.1484 49.5809 80.2378 48.4778 77.3803C48.4364 77.3797 48.395 77.3825 48.3541 77.3887C48.3344 77.3887 48.3063 77.4096 48.3035 77.4236C47.7766 80.7534 47.2524 84.0832 46.7115 87.5136L42.1446 88.8592Z" fill="white"/>
<path d="M78.6697 78.2746C77.4458 76.9933 76.3062 75.793 75.1567 74.5983C74.0073 73.4036 72.8916 72.2536 71.6887 71.0114C71.5327 71.6877 71.7295 72.2689 71.7519 72.8432C71.7758 73.4469 71.863 74.0491 71.9206 74.6514C71.9768 75.2308 72.032 75.8102 72.0864 76.3896C72.1412 76.9919 72.1932 77.5955 72.248 78.1991C72.3028 78.8028 72.3562 79.398 72.4166 80.0841L68.6324 81.1754L67.2371 66.1445L71.017 65.0406L77.9629 72.2983L78.1119 72.2396L77.2828 63.2395L81.0768 62.1356L82.4708 77.1665L78.6697 78.2746Z" fill="white"/>
<path d="M18.3869 75.582L17 60.5692C17.5045 60.4183 17.9485 60.2814 18.3925 60.1501C19.8521 59.7262 21.3121 59.3037 22.7725 58.8827C23.7373 58.5915 24.7406 58.4464 25.7487 58.4523C28.8641 58.5054 30.948 60.2912 31.4735 63.3429C32.1564 67.3392 30.1807 71.1525 26.405 73.0333C25.5622 73.4355 24.6893 73.7718 23.7941 74.0393C22.3229 74.5046 20.8334 74.9071 19.3495 75.3332C19.0628 75.4157 18.7734 75.4828 18.3869 75.582ZM21.0751 62.6009C21.3898 65.5353 21.5711 68.3704 21.9069 71.2922C22.7149 71.0505 23.433 70.8632 24.1314 70.6215C26.8715 69.6755 28.2163 67.268 27.5952 64.4454C27.1834 62.5702 25.7909 61.5879 23.8854 61.9079C22.9707 62.0616 22.0784 62.3494 21.0751 62.6009Z" fill="white"/>
<path d="M63.1901 55.8785C62.8937 59.7574 60.9418 62.5506 57.4401 64.3098C55.8873 65.1045 54.1238 65.3976 52.3955 65.1482C49.7256 64.7737 47.8454 62.8441 47.3761 60.0438C47.04 58.1215 47.3846 56.1428 48.3513 54.4448C49.942 51.6027 52.3561 49.8253 55.6035 49.2468C56.9384 49.0093 58.2734 49.0708 59.5296 49.6171C61.7456 50.5757 62.7953 52.3642 63.1002 54.6628C63.1522 55.0485 63.1592 55.4453 63.1901 55.8785ZM51.0956 57.7467C51.187 58.2958 51.2362 58.8575 51.3767 59.3913C51.8432 61.0862 53.2934 61.9484 55.0302 61.6396C58.6261 61.0038 60.0706 57.382 58.917 54.544C58.3731 53.2068 57.1394 52.4397 55.7497 52.6381C52.8845 53.0503 51.1926 55.0261 51.0956 57.7467Z" fill="white"/>
<path d="M30.941 85.9626L31.9246 83.7562L35.6863 82.6803L33.7471 87.6603L37.5608 90.0134C37.1168 90.346 34.2235 91.2305 33.2511 91.345L31.8094 90.5332C31.6351 90.6841 31.4918 90.7959 31.3611 90.9216C29.6159 92.6474 27.3058 93.6931 24.8509 93.8686C24.1748 93.9095 23.4966 93.8353 22.8456 93.6492C21.8156 93.3697 21.1144 92.6711 20.7674 91.6441C20.3621 90.4608 20.4408 89.1665 20.9866 88.0404C21.3701 87.1872 21.932 86.425 22.6349 85.8047C22.8077 85.6524 22.9524 85.4679 23.1464 85.2597C23.0958 85.1955 23.0339 85.1046 22.9595 85.0264C21.8634 83.8624 21.6161 82.3478 22.2765 80.8945C22.6764 79.9932 23.3336 79.2285 24.1665 78.6952C25.6167 77.7702 27.1821 77.1791 28.9442 77.4376C30.414 77.6556 31.281 78.656 31.385 80.2322C30.3143 80.6919 29.1367 80.889 28.0519 81.2509C27.9662 81.2061 27.9114 81.195 27.8889 81.1628C27.4589 80.3244 27.0458 80.1847 26.2828 80.6039C25.538 81.0063 25.278 81.7553 25.7319 82.4204C25.9984 82.8012 26.335 83.1284 26.724 83.3846C27.7385 84.0525 28.7882 84.6659 29.8266 85.2989C30.185 85.5127 30.5419 85.7209 30.941 85.9626ZM25.5563 86.7549C24.8256 87.3403 24.3197 87.9831 24.1988 88.862C24.0583 89.8779 24.671 90.5947 25.7024 90.6045C26.9348 90.6156 27.9507 90.0763 28.8557 89.291C28.9658 89.1703 29.0633 89.0387 29.1465 88.8983L25.5563 86.7549Z" fill="white"/>
<path d="M42.3989 62.5758L46.4459 67.4328C45.0519 67.9429 43.6608 68.2293 42.2471 68.7142C40.9403 67.2205 39.7965 65.5814 38.4714 64.015L37.6128 64.2218L38.1117 69.8921L34.3401 70.9722L32.949 56.028C33.051 55.9564 33.1603 55.8955 33.275 55.8463C35.3181 55.2511 37.3599 54.653 39.4072 54.0717C40.381 53.7923 41.3745 53.6525 42.3877 53.8356C44.0093 54.136 45.0575 55.2008 45.3091 56.8091C45.6519 59.0112 44.7723 60.7062 43.0931 62.0644C42.8949 62.2251 42.6842 62.3676 42.3989 62.5758ZM37.3585 61.4775C38.0948 61.4258 39.8794 60.9186 40.3712 60.6391C41.3085 60.1053 41.6907 59.2795 41.4855 58.2301C41.345 57.4854 40.7745 57.0033 40.0269 57.1444C39.0264 57.3331 38.047 57.6321 37.0198 57.8948L37.3585 61.4775Z" fill="white"/>
<path d="M95.1527 62.4808L91.1788 63.6433C91.1105 63.4808 91.0287 63.3242 90.9343 63.1752C90.819 63.0025 90.6727 62.8524 90.5029 62.7323C89.4883 62.13 87.8709 62.9558 87.7529 64.1296C87.7023 64.6214 87.8625 65.0183 88.3318 65.2139C88.6518 65.3527 88.991 65.4427 89.338 65.4808C90.5492 65.5912 91.7689 65.6205 92.9746 65.7603C95.3719 66.0509 96.2066 67.6396 95.9606 69.6727C95.7372 71.499 94.7114 72.8642 93.184 73.8409C91.5891 74.8913 89.6951 75.4001 87.7852 75.2913C86.0751 75.1949 84.7879 74.1567 84.3945 72.5512C84.3639 72.369 84.3447 72.1852 84.3369 72.0006L88.2546 70.8632C88.3318 71.0128 88.3866 71.1092 88.433 71.2084C88.7787 71.9462 89.2761 72.2116 90.0687 72.0593C90.7263 71.9336 91.3333 71.689 91.731 71.1148C92.3507 70.2317 92.0331 69.3318 90.9834 69.0789C90.5485 68.9902 90.1064 68.9401 89.6626 68.9294C88.8461 68.8818 88.0269 68.8595 87.2091 68.8246C87.0681 68.8201 86.9274 68.8085 86.7875 68.7896C84.0769 68.3942 83.4333 66.4631 83.8493 64.2456C84.0713 63.0592 84.7514 62.1021 85.6859 61.3475C87.3759 59.9448 89.5284 59.2141 91.7282 59.2963C93.4987 59.3494 94.8 60.4407 95.1274 62.0797C95.1433 62.2128 95.1517 62.3467 95.1527 62.4808Z" fill="white"/>
<path d="M89.5867 43.9678L85.6157 45.1206C85.5607 45.0661 85.5108 45.0067 85.4667 44.9431C85.0691 44.2039 84.663 43.9524 83.9857 44.0307C83.0779 44.1355 82.395 44.6511 82.1997 45.3777C82.0198 46.0442 82.2952 46.6073 82.9613 46.8099C83.3667 46.9205 83.7825 46.9893 84.2021 47.0153C85.3656 47.1187 86.5403 47.1355 87.6925 47.3074C88.8954 47.4862 89.8425 48.101 90.2121 49.3433C90.4114 50.0161 90.4466 50.7264 90.3146 51.4155C90.0651 52.8076 89.29 54.0523 88.1478 54.8948C86.2087 56.3773 84.0278 57.055 81.5786 56.6568C80.8049 56.5465 80.0964 56.1647 79.5811 55.5805C79.0657 54.9963 78.7774 54.248 78.7682 53.4709L82.6606 52.3251C82.7631 52.5319 82.846 52.7164 82.9416 52.8924C83.1552 53.2879 83.4854 53.559 83.9379 53.5701C84.8527 53.5939 85.6522 53.3004 86.1749 52.511C86.737 51.6726 86.4054 50.8118 85.426 50.5729C84.9192 50.4698 84.4044 50.4114 83.8873 50.3982C83.3252 50.3619 82.7631 50.3843 82.2011 50.3507C81.7573 50.3272 81.3156 50.275 80.8788 50.1942C79.0998 49.8519 78.2258 48.7969 78.1457 47.0028C78.0726 45.4 78.6796 44.0894 79.8474 43.0358C81.5336 41.5169 83.5514 40.8001 85.8054 40.7763C86.4334 40.7819 87.0542 40.9106 87.6321 41.155C88.8237 41.6455 89.3675 42.6431 89.5867 43.9678Z" fill="white"/>
<path d="M69.172 55.423L69.6498 60.7677L65.8712 61.8366L64.4885 46.8504C64.733 46.7624 64.941 46.673 65.156 46.6101C67.0207 46.0694 68.8826 45.523 70.7529 45.0018C71.6803 44.7433 72.6218 44.5756 73.5956 44.7447C75.2973 45.0409 76.361 46.0749 76.6364 47.7727C76.9793 49.8812 76.264 51.6237 74.686 53.0266C73.8168 53.7781 72.7914 54.3297 71.6831 54.6419C71.0339 54.8375 70.3791 55.0163 69.7285 55.2106C69.5542 55.2595 69.387 55.3405 69.172 55.423ZM68.891 52.3083C69.6386 52.2525 71.2798 51.7578 71.7773 51.47C72.56 51.0074 72.9014 50.3144 72.8354 49.4229C72.7637 48.3512 72.182 47.8342 71.1196 48.0256C70.2765 48.1737 69.4573 48.4546 68.5495 48.6963L68.891 52.3083Z" fill="white"/>
<path d="M60.7676 68.0127L64.5532 66.9228L65.9401 81.9593L62.1742 83.0492C61.6585 78.0357 61.2243 73.0668 60.7676 68.0127Z" fill="white"/>
<path d="M82.957 81.5597C78.9957 88.2251 72.6176 93.1287 65.1333 95.2631C57.649 97.3974 49.6268 96.6004 42.7151 93.0358L37.9725 94.3842C43.5358 98.054 50.0657 100.007 56.7417 99.9972C70.4943 99.9972 82.3401 91.8816 87.7038 80.2043L82.957 81.5597Z" fill="#F19021"/>
<path d="M30.0261 51.653C31.9766 48.1061 34.6216 44.9835 37.805 42.4692C40.9884 39.955 44.6458 38.1 48.5616 37.0136C52.4774 35.9272 56.5723 35.6315 60.6049 36.1438C64.6375 36.6561 68.5261 37.9662 72.0414 39.9966L76.6322 38.7223C70.8441 34.564 63.8823 32.3314 56.7417 32.3436C42.6785 32.3436 30.6093 40.8266 25.4312 52.9288L30.0261 51.653Z" fill="#F19021"/>
</g>
<defs>
<clipPath id="clip0">
<rect width="79" height="97" fill="white" transform="translate(17 3)"/>
</clipPath>
</defs>
</svg>
