<svg width="160" height="40" viewBox="0 0 160 40" fill="none" xmlns="http://www.w3.org/2000/svg">
<path d="M2.85257 19.0781C2.98025 9.91372 15.6769 2.6454 31.2261 2.82071C38.7202 2.72909 46.0771 4.81875 52.3818 8.82971C47.307 4.41465 38.6702 1.37025 28.7614 1.22677C13.0021 1.01963 0.113132 8.22413 0 17.3089C0 20.9912 1.99761 24.402 5.47885 27.1925C3.80126 24.8092 2.88651 21.9816 2.85257 19.0781Z" fill="url(#paint0_radial)"/>
<path d="M30.0332 19.907C30.0817 20.3061 30.0331 20.7101 29.8925 21.0865C29.7535 21.463 29.5258 21.8023 29.2284 22.0754C28.4801 22.5326 27.6073 22.7443 26.7313 22.6813H14.5018C14.4986 23.2662 14.6715 23.8398 14.9947 24.3294C15.318 24.8189 15.7802 25.2051 16.3216 25.4378C17.4448 25.9758 18.6828 26.2392 19.9304 26.2036C21.3058 26.1132 22.6489 25.7496 23.8788 25.1356C24.8178 24.659 25.8215 24.3213 26.8591 24.1322C27.2292 24.1242 27.5977 24.192 27.9403 24.3294C28.2845 24.4651 28.5948 24.6703 28.8566 24.9288C29.1233 25.1728 29.335 25.4685 29.4788 25.7981C29.6227 26.1277 29.6971 26.4832 29.6955 26.8419C29.6955 28.5513 28.3039 29.8859 25.5224 30.8425C23.4489 31.555 21.2719 31.9202 19.0772 31.925C17.5014 31.9994 15.9289 31.7538 14.4517 31.206C12.9745 30.6583 11.6266 29.8181 10.4888 28.7371C9.41566 27.6675 8.57686 26.3911 8.02252 24.9886C7.46817 23.5845 7.21117 22.0835 7.26612 20.5776C7.25157 19.0878 7.54737 17.611 8.13566 16.2409C8.72233 14.8691 9.5902 13.6331 10.6827 12.607C11.7704 11.512 13.0698 10.6454 14.5034 10.0592C15.9385 9.47313 17.4771 9.17954 19.0287 9.19635C20.4881 9.16484 21.9377 9.4316 23.2889 9.98015C24.6384 10.5287 25.8603 11.3472 26.8752 12.3842C27.8902 13.3616 28.6934 14.5314 29.2365 15.8256C29.7795 17.1182 30.051 18.5078 30.0332 19.907ZM23.2017 18.3139C23.1677 17.8049 23.0238 17.3105 22.7782 16.8613C22.5341 16.4138 22.1948 16.0228 21.7843 15.7158C20.9826 14.9661 19.9224 14.5492 18.8185 14.5492C17.7163 14.5492 16.6561 14.9661 15.8545 15.7158C15.4424 16.0244 15.1063 16.4219 14.8719 16.8759C14.6376 17.3315 14.5115 17.834 14.5018 18.3462L23.2017 18.3139Z" fill="#02447A"/>
<path d="M50.1256 27.6222C50.1256 29.0408 49.1268 30.1573 47.1292 30.9862C45.5324 31.647 43.816 31.9831 42.085 31.9734C40.5303 32.0299 38.9804 31.7553 37.5404 31.1704C36.1004 30.5838 34.8041 29.7016 33.7391 28.5787C31.6801 26.433 30.5681 23.5666 30.6457 20.6098C30.6199 19.1233 30.8914 17.6481 31.4441 16.2666C31.9969 14.8852 32.8211 13.6249 33.8684 12.5601C34.9205 11.4582 36.1974 10.589 37.6131 10.0095C39.0289 9.4299 40.5529 9.15296 42.085 9.19675C43.8176 9.157 45.5421 9.42699 47.1776 9.99363C49.1526 10.7162 50.1418 11.8374 50.1418 13.3567C50.1483 14.1112 49.867 14.8399 49.3515 15.3974C49.1058 15.6801 48.7971 15.9047 48.4528 16.0566C48.1069 16.2085 47.732 16.2828 47.3538 16.2731C46.5393 16.2182 45.7361 16.0453 44.97 15.7641C44.1764 15.4814 43.3457 15.315 42.5037 15.2697C41.7942 15.2326 41.0863 15.357 40.4318 15.6333C39.7788 15.9096 39.1986 16.3313 38.7347 16.8629C37.8668 17.9002 37.4192 19.217 37.4774 20.5613C37.4354 21.8588 37.8313 23.132 38.6055 24.179C38.9998 24.7316 39.5283 25.1759 40.1425 25.4748C40.755 25.7721 41.4354 25.9143 42.1174 25.8852C43.0467 25.8351 43.9647 25.6526 44.8407 25.344C45.6504 25.0531 46.4956 24.8705 47.3538 24.8011C47.7239 24.8011 48.0892 24.8786 48.4254 25.0305C48.7616 25.1808 49.0622 25.4021 49.3046 25.6784C49.8266 26.1922 50.1224 26.8918 50.1256 27.6222Z" fill="#02447A"/>
<path d="M72.4093 20.5921C72.4869 23.5506 71.3734 26.4169 69.316 28.5627C68.2477 29.6856 66.9483 30.5694 65.5067 31.156C64.0634 31.7409 62.512 32.0139 60.954 31.9574C59.3976 32.0139 57.8477 31.7392 56.4093 31.1543C54.9693 30.5678 53.6731 29.684 52.6064 28.5627C50.5539 26.4137 49.4484 23.5474 49.5292 20.5921C49.4484 17.6385 50.5539 14.7722 52.6064 12.6232C53.6763 11.5025 54.9709 10.6179 56.4093 10.0274C57.8477 9.4368 59.396 9.15355 60.954 9.19621C62.5055 9.14774 64.0505 9.42517 65.4857 10.0104C66.9224 10.5956 68.2171 11.4752 69.2837 12.5909C70.3116 13.6557 71.118 14.9095 71.6546 16.2829C72.1912 17.6563 72.4481 19.1202 72.4093 20.5921ZM65.5778 20.5921C65.6182 19.2963 65.2222 18.0231 64.4497 16.9745C64.0311 16.4558 63.501 16.0373 62.8966 15.7497C62.2937 15.4621 61.6311 15.3135 60.962 15.3135C60.2913 15.3135 59.6303 15.4621 59.0258 15.7497C58.4214 16.0373 57.8913 16.4558 57.4727 16.9745C56.6985 18.0215 56.301 19.2963 56.3446 20.5921C56.309 21.8993 56.705 23.1806 57.4727 24.2421C57.8896 24.764 58.4198 25.1841 59.0242 25.4733C59.6271 25.7626 60.2897 25.9128 60.962 25.9128C61.6327 25.9128 62.2954 25.7626 62.8998 25.4733C63.5027 25.1841 64.0327 24.764 64.4497 24.2421C65.2174 23.179 65.6117 21.8977 65.5778 20.5921Z" fill="#02447A"/>
<path d="M74.6171 28.4657V6.00798C74.601 5.59822 74.672 5.1896 74.8256 4.80828C74.9775 4.42696 75.2086 4.08103 75.5028 3.79245C75.8405 3.49192 76.2349 3.26104 76.6648 3.11336C77.0931 2.96552 77.5473 2.90379 77.9998 2.93174L85.7186 2.82009C88.6099 2.74577 91.4317 3.69552 93.6782 5.49789C94.7158 6.32904 95.5464 7.38542 96.104 8.58495C96.6632 9.78449 96.9363 11.0952 96.9008 12.4156C96.9476 13.7381 96.681 15.0533 96.1218 16.2538C95.5626 17.4559 94.7255 18.511 93.6782 19.3334C91.5028 21.0752 88.7748 22.0011 85.9756 21.9477H81.1416V28.4819C81.1723 28.9116 81.1028 29.3431 80.9411 29.7438C80.7795 30.1429 80.529 30.5032 80.2074 30.794C79.5432 31.3094 78.7238 31.5889 77.8801 31.5889C77.0349 31.5889 76.2155 31.3094 75.5513 30.794C75.2329 30.5064 74.984 30.1525 74.8224 29.7583C74.6608 29.3641 74.5913 28.9391 74.6171 28.5142V28.4657ZM81.1416 16.6238H85.5731C86.1646 16.661 86.7562 16.5753 87.3105 16.3734C87.8665 16.1698 88.3723 15.8531 88.7958 15.4443C89.2063 15.0468 89.5311 14.5702 89.7477 14.0435C89.9626 13.5167 90.0676 12.9512 90.0531 12.3838C90.066 11.8232 89.9642 11.2658 89.7541 10.7452C89.544 10.2248 89.2288 9.75185 88.828 9.35518C88.403 8.94543 87.8972 8.62535 87.3444 8.41433C86.7901 8.20347 86.1986 8.10588 85.6055 8.12786H81.1739L81.1416 16.6238Z" fill="url(#paint1_radial)"/>
<path d="M118.942 13.5636V28.4673C118.958 28.6951 118.958 28.9245 118.942 29.1524C118.855 29.7631 118.604 30.3399 118.218 30.8263C117.618 31.2965 116.882 31.5615 116.119 31.5808C115.354 31.6018 114.603 31.3756 113.981 30.9378C113.504 30.445 113.161 29.8423 112.982 29.1847C112.225 30.02 111.304 30.6922 110.275 31.1607C109.261 31.6083 108.162 31.8377 107.052 31.8297C105.665 31.8523 104.29 31.5792 103.02 31.0283C101.749 30.4789 100.613 29.6646 99.6887 28.6418C98.6851 27.5738 97.9045 26.3199 97.3938 24.9514C96.8815 23.5845 96.6487 22.1303 96.7085 20.6729C96.6083 17.7257 97.6912 14.861 99.7211 12.7024C100.642 11.6841 101.772 10.8725 103.037 10.3227C104.301 9.77283 105.67 9.49734 107.052 9.51495C108.191 9.51334 109.319 9.7355 110.372 10.1685C111.417 10.5931 112.326 11.2932 112.998 12.1927C113.037 11.8491 113.145 11.5166 113.316 11.2152C113.488 10.9139 113.719 10.65 113.997 10.4395C114.575 10.0108 115.288 9.79657 116.01 9.83374C116.419 9.78203 116.835 9.82582 117.224 9.96139C117.612 10.0969 117.964 10.3207 118.25 10.6148C118.619 11.1377 118.842 11.7482 118.895 12.384C118.911 12.6119 118.911 12.8413 118.895 13.0691V13.6266L118.942 13.5636ZM102.831 20.752V21.135C102.814 21.261 102.814 21.3903 102.831 21.5179C102.948 22.7798 103.424 23.9836 104.199 24.9918C104.613 25.5266 105.151 25.9499 105.77 26.2295C106.389 26.5074 107.066 26.6302 107.745 26.5865C108.406 26.6237 109.066 26.4977 109.665 26.2198C110.265 25.9402 110.784 25.5185 111.176 24.9918C111.942 23.9787 112.41 22.7766 112.531 21.5179C112.544 21.3903 112.544 21.2626 112.531 21.135V20.8005C112.531 20.6567 112.531 20.5291 112.531 20.3691C112.531 20.2108 112.531 20.067 112.531 19.907C112.4 18.6596 111.933 17.4704 111.176 16.4638C110.79 15.9436 110.278 15.5251 109.688 15.2472C109.096 14.9693 108.447 14.84 107.794 14.8707C107.123 14.8351 106.454 14.9612 105.845 15.2391C105.235 15.517 104.705 15.9371 104.296 16.4638C103.514 17.4559 103.024 18.6419 102.879 19.8909C102.879 20.0508 102.879 20.2108 102.879 20.353C102.879 20.4968 102.879 20.6406 102.879 20.7844L102.831 20.752Z" fill="url(#paint2_radial)"/>
<path d="M119.862 13.7559C119.771 13.5523 119.705 13.3374 119.668 13.1176C119.645 12.8526 119.645 12.586 119.668 12.3207C119.655 12.0221 119.708 11.7244 119.826 11.4487C119.943 11.1732 120.12 10.9267 120.345 10.7268C120.796 10.3014 121.352 9.99921 121.956 9.85024H122.294H122.456C123.141 9.82988 123.817 10.0191 124.389 10.3922C124.932 10.7596 125.347 11.2823 125.581 11.8905L129.884 22.6813L134.507 11.8426C134.75 11.2521 135.165 10.7468 135.7 10.3922C136.272 10.0191 136.948 9.82988 137.633 9.85024H137.971H138.326C138.928 10.0063 139.482 10.3075 139.938 10.7268C140.166 10.9244 140.347 11.1702 140.466 11.446C140.588 11.7218 140.642 12.0208 140.629 12.3207C140.654 12.586 140.654 12.8526 140.629 13.1176C140.586 13.3568 140.503 13.5878 140.389 13.8027L129.916 37.7127C129.659 38.3121 129.281 38.855 128.804 39.3058C128.557 39.5352 128.264 39.7146 127.947 39.8325C127.629 39.9505 127.29 40.0038 126.95 39.9909C126.068 40.0555 125.193 39.776 124.518 39.2105C124.267 38.9988 124.064 38.7387 123.923 38.4446C123.781 38.1505 123.703 37.8306 123.695 37.5042C123.69 37.4137 123.69 37.3233 123.695 37.2344C123.695 37.1229 123.695 37.026 123.695 36.963C123.729 36.7723 123.783 36.5849 123.857 36.4055L124.051 35.8465L126.79 29.6145L119.862 13.7559Z" fill="url(#paint3_radial)"/>
<path d="M140.516 27.829L150.344 15.0775H143.078C142.357 15.1243 141.645 14.903 141.081 14.457C140.798 14.2437 140.568 13.9691 140.411 13.6524C140.256 13.3373 140.175 12.9899 140.177 12.6393C140.169 12.2824 140.247 11.9285 140.403 11.607C140.56 11.2855 140.793 11.0054 141.081 10.7904C141.646 10.3414 142.352 10.1042 143.078 10.1208H157.289H157.708L158.207 10.2325C158.511 10.348 158.782 10.5338 158.997 10.7744C159.249 11.0843 159.377 11.4766 159.351 11.8742C159.379 12.0806 159.379 12.2895 159.351 12.4958C159.316 12.6684 159.267 12.8396 159.206 13.0061L159.013 13.2775L158.771 13.5958L148.895 26.2666H157.16C157.887 26.2714 158.592 26.5186 159.159 26.9694C159.434 27.1908 159.653 27.4735 159.799 27.7951C159.946 28.115 160.012 28.4656 159.996 28.8179C160.017 29.1701 159.952 29.5223 159.807 29.8439C159.662 30.1654 159.439 30.4482 159.159 30.6663C158.588 31.1025 157.881 31.3287 157.16 31.3045H142.66C142.026 31.319 141.401 31.1591 140.854 30.8424C140.605 30.6889 140.403 30.4708 140.269 30.2123C140.137 29.9537 140.077 29.6645 140.098 29.3753C140.096 29.1426 140.133 28.91 140.209 28.6902C140.276 28.4979 140.356 28.3121 140.452 28.1328C140.504 28.0875 140.547 28.0326 140.581 27.9728L140.678 27.8129L140.516 27.829Z" fill="url(#paint4_radial)"/>
<defs>
<radialGradient id="paint0_radial" cx="0" cy="0" r="1" gradientUnits="userSpaceOnUse" gradientTransform="translate(19.7868 9.77024) scale(36.253 35.8633)">
<stop stop-color="#81C241"/>
<stop offset="1" stop-color="#8BC53F"/>
</radialGradient>
<radialGradient id="paint1_radial" cx="0" cy="0" r="1" gradientUnits="userSpaceOnUse" gradientTransform="translate(1260.88 418.593) scale(178.799 230.764)">
<stop stop-color="#81C241"/>
<stop offset="1" stop-color="#8BC53F"/>
</radialGradient>
<radialGradient id="paint2_radial" cx="0" cy="0" r="1" gradientUnits="userSpaceOnUse" gradientTransform="translate(1585.57 283.343) scale(154.672 155.103)">
<stop stop-color="#81C241"/>
<stop offset="1" stop-color="#8BC53F"/>
</radialGradient>
<radialGradient id="paint3_radial" cx="0" cy="0" r="1" gradientUnits="userSpaceOnUse" gradientTransform="translate(1815.36 299.606) scale(170.914 245.435)">
<stop stop-color="#81C241"/>
<stop offset="1" stop-color="#8BC53F"/>
</radialGradient>
<radialGradient id="paint4_radial" cx="0" cy="0" r="1" gradientUnits="userSpaceOnUse" gradientTransform="translate(1992.44 270.069) scale(128.201 136.437)">
<stop stop-color="#81C241"/>
<stop offset="1" stop-color="#8BC53F"/>
</radialGradient>
</defs>
</svg>
