<svg width="160" height="30" viewBox="0 0 160 30" fill="none" xmlns="http://www.w3.org/2000/svg">
<path d="M15.9665 0.0837402V14.7128C15.9665 15.3815 15.4649 15.8831 14.7961 15.8831H13.0407C12.9571 15.8831 12.8735 15.9667 12.8735 16.0503V28.3387C13.2914 28.3387 13.7094 28.4223 14.211 28.4223C22.0689 28.4223 28.422 22.0691 28.422 14.2112C28.422 6.93849 22.9884 0.919685 15.9665 0.0837402ZM15.6321 21.9855C14.629 21.9855 13.8766 21.1495 13.8766 20.23C13.8766 19.2269 14.7126 18.4745 15.6321 18.4745C16.6352 18.4745 17.3876 19.3105 17.3876 20.23C17.4712 21.1495 16.6352 21.9855 15.6321 21.9855ZM19.8118 21.9855C18.8087 21.9855 18.0563 21.1495 18.0563 20.23C18.0563 19.2269 18.8923 18.4745 19.8118 18.4745C20.8149 18.4745 21.5673 19.3105 21.5673 20.23C21.5673 21.1495 20.8149 21.9855 19.8118 21.9855ZM23.9915 21.9855C22.9884 21.9855 22.2361 21.1495 22.2361 20.23C22.2361 19.2269 23.072 18.4745 23.9915 18.4745C24.9947 18.4745 25.747 19.3105 25.747 20.23C25.747 21.1495 24.9947 21.9855 23.9915 21.9855Z" fill="#00985F"/>
<path d="M14.2111 0C6.35318 0 0 6.35318 0 14.2111C0 21.0658 4.76488 26.7502 11.2017 28.0877V15.2978C11.2017 14.7126 11.7032 14.2111 12.2884 14.1275H12.8735H14.0439C14.1275 14.1275 14.2111 14.0439 14.2111 13.9603V0ZM11.4524 11.7032C10.4493 11.7032 9.69696 10.8673 9.69696 9.94774C9.69696 8.94461 10.5329 8.19226 11.4524 8.19226C12.4556 8.19226 13.2079 9.0282 13.2079 9.94774C13.2079 10.8673 12.4556 11.7032 11.4524 11.7032Z" fill="#00985F"/>
<path d="M156.489 7.77429V13.1243H149.3V7.77429H145.705V21.9854H149.3V16.2173H156.489V21.9854H160V7.77429H156.489Z" fill="#00985F"/>
<path d="M97.3039 9.36262C96.7187 8.1087 95.5484 7.43994 94.3781 7.43994C93.2078 7.43994 92.0375 8.1087 91.4523 9.36262L85.6843 21.9854H89.446L90.6999 18.976H98.0563L99.3102 21.9854H103.072L97.3039 9.36262ZM91.8703 16.1338L94.0437 10.9509C94.1273 10.7837 94.2109 10.7837 94.2945 10.7837C94.3781 10.7837 94.5453 10.7837 94.5453 10.9509L96.7187 16.1338H91.8703Z" fill="#00985F"/>
<path d="M55.0053 5.18286C53.3334 5.18286 52.2466 6.1024 51.4943 7.85788L46.8966 18.558L42.2989 7.85788C41.5465 6.1024 40.4598 5.18286 38.7879 5.18286C37.1996 5.18286 35.6113 6.26959 35.6113 8.69383V21.9018H39.1223V9.1118L43.8036 19.7283C44.3888 21.233 45.4755 22.1525 46.8966 22.1525C48.4013 22.1525 49.4044 21.233 49.9896 19.7283L54.6709 9.1118V21.9853H58.1818V8.77742C58.1818 6.35318 56.5935 5.18286 55.0053 5.18286Z" fill="#00985F"/>
<path d="M64.4513 18.9759C64.2841 18.9759 64.1169 18.8087 64.1169 18.6415V16.1337H72.9779V13.2079H64.1169V11.0345C64.1169 10.8673 64.2841 10.7001 64.4513 10.7001H73.2287V7.69067H62.6958C61.4419 7.69067 60.6059 8.69381 60.6059 9.78054V19.7283C60.6059 20.815 61.5255 21.8181 62.6958 21.8181H73.2287V18.8087H64.4513V18.9759Z" fill="#00985F"/>
<path d="M79.1639 21.9854V11.1181C79.1639 10.9509 79.3311 10.7837 79.4983 10.7837H88.2757V7.77429H77.7428C76.4889 7.77429 75.6529 8.77743 75.6529 9.86415V21.9018H79.1639V21.9854Z" fill="#00985F"/>
<path d="M143.364 14.8798C143.364 9.9477 141.191 7.60706 135.841 7.60706H134.587C129.237 7.60706 127.064 9.9477 127.064 14.8798C127.064 19.7283 129.237 22.1525 134.587 22.1525H135.757C141.191 22.0689 143.364 19.7283 143.364 14.8798ZM135.757 19.1431H134.587C131.661 19.1431 130.491 17.8056 130.491 14.8798C130.491 12.0376 131.494 10.6165 134.587 10.6165H135.757C138.767 10.6165 139.853 12.0376 139.853 14.8798C139.853 17.8056 138.767 19.1431 135.757 19.1431Z" fill="#00985F"/>
<path d="M117.199 5.51721H110.177C104.911 5.51721 102.821 8.19223 102.821 12.7899C102.821 13.5423 102.905 14.211 102.988 14.7962C103.573 18.0564 105.496 20.0627 110.428 20.0627H112.017V21.9017H115.527V20.0627H117.032C121.964 20.0627 123.887 18.0564 124.472 14.7962C124.556 14.211 124.639 13.5423 124.639 12.7899C124.556 8.19223 122.382 5.51721 117.199 5.51721ZM111.849 17.1368H110.261C107.837 17.1368 107.001 16.2173 106.499 14.7962C106.332 14.2946 106.332 13.5423 106.332 12.7899C106.332 9.78053 107.753 8.52661 109.759 8.52661H111.933V17.1368H111.849ZM120.878 14.8798C120.376 16.3009 119.456 17.2204 117.116 17.2204H115.527V8.52661H117.701C119.707 8.52661 121.128 9.78053 121.128 12.7899C121.045 13.6259 121.045 14.2946 120.878 14.8798Z" fill="#00985F"/>
</svg>
