<svg width="120" height="60" viewBox="0 0 120 60" fill="none" xmlns="http://www.w3.org/2000/svg">
<path d="M0 58.125H58.0001V1.875H0V58.125Z" fill="#EA1D25"/>
<path d="M28.9232 7.65198C37.2309 7.65198 46.0002 21.9425 46.0002 34.2567C46.0002 43.9865 40.154 52.1959 28.9232 52.1959C17.6925 52.1959 11.8463 43.8344 11.8463 34.2567C12.0001 21.9425 20.7694 7.65198 28.9232 7.65198Z" fill="white"/>
<path d="M120 58.125H61.9999V1.875H120V58.125Z" fill="#EA1D25"/>
<path d="M66.3079 23.3109H72.4617L74.4617 31.2163L76.4617 23.3109H82.6156V36.8413H78.4617V28.1758L76.0002 36.8413H72.7694L70.3079 28.1758V36.8413H66.3079V23.3109Z" fill="white"/>
<path d="M88.7694 26.8075H84.9233V23.3109H96.9233V26.8075H93.0771V36.8413H88.7694V26.8075Z" fill="white"/>
<path d="M107.231 28.3279C107.077 27.8718 106.769 26.3515 104.923 26.3515C102.923 26.3515 102.308 28.1759 102.308 30.0002C102.308 31.8245 102.923 33.6488 104.923 33.6488C106.308 33.6488 106.923 32.7367 107.231 31.3684H111.385C111.385 34.1049 109.077 36.9934 105.077 36.9934C100.616 36.9934 98.0002 33.9529 98.0002 29.8482C98.0002 25.5914 100.769 22.7029 105.077 22.7029C108.923 22.7029 111.077 24.6792 111.385 28.0238L107.231 28.3279Z" fill="white"/>
</svg>
