<svg width="160" height="30" viewBox="0 0 160 30" fill="none" xmlns="http://www.w3.org/2000/svg">
<g clip-path="url(#clip0)">
<path d="M158.332 14.79C159.511 13.201 160.097 11.2491 159.987 9.27323C160.056 8.12972 159.827 6.98789 159.325 5.95848C158.822 4.92907 158.062 4.04701 157.118 3.39785C154.321 1.81231 151.13 1.05643 147.919 1.21872H137.368L133.451 22.6239H119.576L120.487 17.7967H128.762L129.824 12.3764H121.549L122.459 7.54923H131.024L132.086 1.21872H114.598L110.832 21.5619H104.35L108.115 1.21872H98.9161L95.1646 21.5619H88.972L92.7373 1.21872H83.538L79.6211 22.6239H65.5946L66.5049 17.7967H74.9456L76.0076 12.3764H67.5807L68.491 7.54923H77.2351L78.4074 1.21872H23.8187L20.688 18.1001L14.6333 1.21872H5.13062L0 28.8027H9.04754L12.068 11.4662L18.0951 28.8027H50.52L54.4369 7.39752H59.5675L55.6368 28.8027H141.147L143.561 15.2314L147.574 28.8027H156.622L152.401 17.7691L153.312 17.6174C155.282 17.3429 157.076 16.3328 158.332 14.79ZM42.6724 22.6239H28.7976L29.7079 17.7967H38.452L39.514 12.3764H30.9078L31.7215 7.54923H45.5135L42.6724 22.6239ZM149.588 13.2729C148.327 13.9727 146.889 14.2891 145.45 14.1832H143.643L145.023 6.79068H146.402C147.558 6.73552 148.708 6.99784 149.726 7.54923C150.151 7.82868 150.499 8.20952 150.74 8.65739C150.981 9.10526 151.106 9.60605 151.105 10.1145C151.165 10.7294 151.055 11.3489 150.788 11.9057C150.52 12.4626 150.105 12.9354 149.588 13.2729Z" fill="#8BC53D"/>
</g>
<defs>
<clipPath id="clip0">
<rect width="160" height="30" fill="white"/>
</clipPath>
</defs>
</svg>
