<svg width="160" height="70" viewBox="0 0 160 70" fill="none" xmlns="http://www.w3.org/2000/svg">
<path d="M108.426 22.8061V47.1786C108.428 47.266 108.413 47.3529 108.381 47.4344C108.349 47.5158 108.302 47.5902 108.241 47.6533C108.18 47.7164 108.108 47.7669 108.027 47.802C107.947 47.8371 107.86 47.8561 107.773 47.8579H102.71C102.622 47.8598 102.535 47.8444 102.453 47.8126C102.372 47.7809 102.297 47.7334 102.234 47.6729C102.17 47.6124 102.12 47.54 102.084 47.46C102.049 47.3799 102.03 47.2937 102.028 47.2063V22.8061C102.026 22.7187 102.042 22.6318 102.074 22.5504C102.106 22.4689 102.153 22.3945 102.214 22.3314C102.275 22.2684 102.347 22.2178 102.428 22.1827C102.508 22.1476 102.594 22.1286 102.682 22.1268H107.703C107.791 22.1249 107.878 22.1403 107.96 22.1721C108.041 22.2038 108.116 22.2513 108.179 22.3118C108.243 22.3724 108.293 22.4447 108.329 22.5247C108.364 22.6048 108.383 22.691 108.385 22.7784L108.426 22.8061ZM147.372 22.1268C147.625 22.1455 147.865 22.2479 148.053 22.4179C148.118 22.4988 148.16 22.5947 148.178 22.6965C148.195 22.7984 148.185 22.9029 148.151 23.0002L139.847 47.4282C139.796 47.5526 139.709 47.6595 139.598 47.7358C139.487 47.8121 139.356 47.8546 139.221 47.8579H134.77C134.633 47.8647 134.497 47.8263 134.384 47.7486C134.271 47.6709 134.187 47.5583 134.144 47.4282L129.29 33.1901L124.547 47.4282C124.496 47.5526 124.409 47.6595 124.298 47.7358C124.187 47.8121 124.056 47.8546 123.921 47.8579H119.47C119.333 47.8647 119.197 47.8263 119.084 47.7486C118.971 47.6709 118.887 47.5583 118.844 47.4282L110.61 23.0002C110.578 22.9025 110.57 22.7985 110.587 22.6972C110.604 22.5958 110.645 22.5 110.708 22.4179C110.763 22.328 110.841 22.2539 110.933 22.2028C111.026 22.1518 111.13 22.1256 111.236 22.1268H116.8C116.942 22.1304 117.08 22.1794 117.193 22.2667C117.305 22.3541 117.387 22.4751 117.426 22.612L121.835 37.0442L126.675 22.612C126.726 22.4876 126.813 22.3807 126.924 22.3044C127.035 22.228 127.166 22.1856 127.301 22.1822H131.237C131.375 22.1755 131.51 22.2139 131.623 22.2916C131.736 22.3693 131.821 22.4818 131.863 22.612L136.704 37.0442L141.113 22.612C141.151 22.4751 141.233 22.3541 141.346 22.2667C141.458 22.1794 141.596 22.1304 141.739 22.1268H147.302H147.372ZM155.801 22.1268C155.978 22.1367 156.146 22.2115 156.272 22.3368C156.397 22.4621 156.472 22.6292 156.482 22.8061V47.1786C156.484 47.266 156.469 47.3529 156.437 47.4344C156.405 47.5158 156.357 47.5902 156.297 47.6533C156.236 47.7164 156.163 47.7669 156.083 47.802C156.003 47.8371 155.916 47.8561 155.829 47.8579H150.807C150.72 47.8598 150.633 47.8444 150.551 47.8126C150.469 47.7809 150.395 47.7334 150.331 47.6729C150.268 47.6124 150.217 47.54 150.182 47.46C150.147 47.3799 150.128 47.2937 150.126 47.2063V22.8061C150.124 22.7187 150.14 22.6318 150.171 22.5504C150.203 22.4689 150.251 22.3945 150.312 22.3314C150.372 22.2684 150.445 22.2178 150.525 22.1827C150.605 22.1476 150.692 22.1286 150.78 22.1268H155.717H155.801ZM99.1352 46.9984C99.2029 47.0695 99.2474 47.1593 99.2629 47.2561C99.2784 47.3528 99.2641 47.452 99.2219 47.5405C99.1798 47.6291 99.1117 47.7028 99.0267 47.752C98.9417 47.8013 98.8438 47.8237 98.7457 47.8164H92.6396C92.5199 47.8191 92.4011 47.7942 92.2925 47.7437C92.184 47.6932 92.0886 47.6184 92.0137 47.5252L90.9984 46.2775C88.8168 47.6815 86.2789 48.4365 83.6822 48.4541C80.6935 48.4455 77.7926 47.4459 75.4367 45.6129C73.0807 43.7799 71.4036 41.2177 70.6696 38.33C69.9356 35.4423 70.1863 32.3932 71.3824 29.6632C72.5785 26.9332 74.6519 24.6775 77.276 23.2514C79.9 21.8254 82.9254 21.3101 85.8756 21.7868C88.8258 22.2635 91.533 23.705 93.5707 25.8842C95.6084 28.0635 96.8607 30.8566 97.1303 33.8234C97.3999 36.7902 96.6715 39.7621 95.0598 42.2708L99.1213 46.9984H99.1352ZM56.6707 43.9206C57.8391 44.3643 58.2842 46.1111 58.3676 46.8598C58.5485 48.2461 58.1451 48.773 57.7 48.773C57.2549 48.773 56.629 48.2323 55.9475 47.1648C55.6288 46.7613 55.4099 46.2888 55.3084 45.7855C55.207 45.2821 55.2257 44.762 55.3633 44.2672C55.4936 44.0556 55.6992 43.9009 55.9391 43.834C56.179 43.7672 56.4354 43.7932 56.6568 43.9068L56.6707 43.9206ZM49.8692 48.9532C50.703 48.9861 51.4975 49.3156 52.1086 49.8821C53.4995 51.0466 53.9028 52.3775 53.1796 53.3619C52.952 53.6226 52.6693 53.8298 52.3519 53.9689C52.0345 54.1079 51.6901 54.1752 51.3436 54.166C50.5743 54.1718 49.8286 53.9011 49.2433 53.4035C48.6553 52.9768 48.2473 52.3477 48.0982 51.6381C47.9492 50.9286 48.0697 50.1892 48.4366 49.5632C48.6113 49.3575 48.8318 49.1952 49.0805 49.0893C49.3292 48.9834 49.5993 48.9368 49.8692 48.9532ZM34.2076 61.8465C27.4236 61.8357 20.8338 59.5884 15.4651 55.4547C10.0964 51.321 6.25041 45.5332 4.52651 38.9934C2.80262 32.4535 3.29766 25.5288 5.93449 19.2987C8.57131 13.0685 13.2018 7.88276 19.1043 4.54963C25.0068 1.21649 31.8497 -0.0767885 38.5667 0.871331C45.2836 1.81945 51.4972 4.95571 56.2391 9.79134C60.981 14.627 63.9848 20.8903 64.7825 27.6053C65.5801 34.3202 64.1267 41.1096 60.6487 46.9152C60.624 46.9444 60.5916 46.9663 60.5552 46.9783C60.5189 46.9904 60.4798 46.9922 60.4425 46.9836C60.4051 46.975 60.3708 46.9563 60.3434 46.9296C60.316 46.9028 60.2965 46.8691 60.2871 46.832C59.2161 39.2901 54.5983 35.1449 47.8941 33.8971C47.3099 33.8001 47.2265 33.4535 47.9776 33.3564C50.1415 33.1728 52.319 33.2192 54.4731 33.4951C54.5648 32.7128 54.6113 31.9259 54.6122 31.1382C54.6177 27.1228 53.4281 23.1959 51.194 19.8545C48.9598 16.5131 45.7815 13.9073 42.0611 12.3669C38.3408 10.8264 34.2456 10.4205 30.2938 11.2006C26.3419 11.9806 22.711 13.9114 19.8604 16.7489C17.0098 19.5863 15.0677 23.2027 14.2797 27.1406C13.4917 31.0785 13.8934 35.1609 15.4338 38.8712C16.9742 42.5816 19.5841 45.7531 22.9334 47.9846C26.2826 50.216 30.2207 51.4071 34.2493 51.4071H35.1812C34.8583 49.577 34.7232 47.7189 34.7778 45.8616C34.7778 44.6138 35.0977 44.4752 35.6263 45.4179C37.0974 48.2299 39.1836 50.6765 41.7307 52.577C44.2778 54.4775 47.2207 55.7833 50.3421 56.398C56.782 57.7844 63.2358 59.4758 70.1626 68.2654C70.7885 69.0279 69.8566 69.832 69.1333 69.2082C62.0675 62.9556 55.6137 60.8899 49.7579 60.8899C43.1789 60.8899 38.7002 61.7772 34.1797 61.7772L34.2076 61.8465ZM87.0621 41.5915L84.3637 38.3474C84.3002 38.2697 84.2602 38.1755 84.2485 38.0759C84.2368 37.9763 84.2539 37.8754 84.2977 37.7851C84.3415 37.6949 84.4103 37.619 84.4959 37.5663C84.5815 37.5136 84.6804 37.4864 84.781 37.4878H90.3447C90.794 36.0695 90.7814 34.5457 90.3084 33.1349C89.8355 31.7242 88.9266 30.4989 87.712 29.6347C86.4974 28.7706 85.0395 28.3119 83.5473 28.3244C82.0551 28.3369 80.6051 28.8201 79.4053 29.7045C78.2055 30.589 77.3175 31.8294 76.8685 33.2479C76.4194 34.6664 76.4325 36.1901 76.9058 37.6007C77.3792 39.0114 78.2884 40.2364 79.5032 41.1003C80.718 41.9641 82.1761 42.4224 83.6683 42.4095C84.8381 42.4331 85.9938 42.1511 87.0204 41.5915H87.0621Z" fill="#FF8C00"/>
</svg>
