<svg xmlns="http://www.w3.org/2000/svg" viewBox="-1197 -124 203.717 42.258">
  <defs>
    <style>
      .cls-1 {
        fill: #fff;
      }
    </style>
  </defs>
  <g id="Group_206" data-name="Group 206" transform="translate(-2310 -1842)">
    <path id="Path_166" data-name="Path 166" class="cls-1" d="M12.7,39.989A19.011,19.011,0,0,1,0,35.714l3.664-6.473c3.053,2.076,5.74,3.175,8.305,3.175a3.5,3.5,0,0,0,2.076-.489,1.477,1.477,0,0,0,.733-1.1,1.1,1.1,0,0,0-.122-.611.954.954,0,0,0-.489-.489c-.244-.122-.366-.244-.611-.366A5.954,5.954,0,0,0,12.7,29a8.415,8.415,0,0,1-.977-.366,5.678,5.678,0,0,0-1.1-.366c-.489-.122-.855-.244-1.221-.366A19.315,19.315,0,0,1,3.42,24.6a7.082,7.082,0,0,1-2.076-5.252,8.361,8.361,0,0,1,3.42-7.084A14.942,14.942,0,0,1,13.8,9.7a20,20,0,0,1,11.847,3.542l-3.542,6.229a16.034,16.034,0,0,0-7.572-2.443,3.5,3.5,0,0,0-2.076.489,1.174,1.174,0,0,0-.733,1.1c0,.489.244.855.855,1.221a17.055,17.055,0,0,0,3.053,1.221A44.715,44.715,0,0,1,22.35,23.99a7.618,7.618,0,0,1,3.3,6.473,7.97,7.97,0,0,1-3.786,7.084A16.21,16.21,0,0,1,12.7,39.989Z" transform="translate(1113 1720.147)"/>
    <path id="Path_167" data-name="Path 167" class="cls-1" d="M24.8,41.525V0H35.3V41.525Z" transform="translate(1118.489 1718)"/>
    <path id="Path_168" data-name="Path 168" class="cls-1" d="M52.044,40.133c-4.641,0-8.427-1.343-11.114-4.153S36.9,29.508,36.9,24.867s1.343-8.427,4.153-11.114C43.739,10.943,47.4,9.6,52.167,9.6c4.885,0,8.549,1.343,11.236,4.03s4.03,6.473,4.03,11.236c0,4.641-1.343,8.305-4.03,11.114A16.02,16.02,0,0,1,52.044,40.133ZM46.793,24.867c0,4.763,1.71,7.084,5.252,7.084S57.3,29.63,57.3,24.867s-1.71-7.084-5.252-7.084C48.625,17.783,46.793,20.1,46.793,24.867Z" transform="translate(1121.167 1720.125)"/>
    <path id="Path_169" data-name="Path 169" class="cls-1" d="M85.24,31.013l2.931,7.206a16.138,16.138,0,0,1-10.259,3.3A10.5,10.5,0,0,1,70.1,38.585c-1.954-1.954-2.931-4.641-2.931-8.305V18.555H63.5V11.716h3.664V2.8H77.545v9.038h8.671v6.839H77.545V29.059c0,2.321,1.221,3.542,3.542,3.542A8.379,8.379,0,0,0,85.24,31.013Z" transform="translate(1127.054 1718.62)"/>
    <path id="Path_170" data-name="Path 170" class="cls-1" d="M106.84,31.013l2.931,7.206a16.138,16.138,0,0,1-10.259,3.3A10.5,10.5,0,0,1,91.7,38.585c-1.954-1.954-2.931-4.641-2.931-8.305V18.555H85.1V11.716h3.664V2.8H99.145v9.038h8.671v6.839H99.145V29.059c0,2.321,1.221,3.542,3.542,3.542A7.973,7.973,0,0,0,106.84,31.013Z" transform="translate(1131.835 1718.62)"/>
    <path id="Path_171" data-name="Path 171" class="cls-1" d="M107.5,39.268V10.2h10.381V39.268Z" transform="translate(1136.793 1720.258)"/>
    <path id="Path_172" data-name="Path 172" class="cls-1" d="M134.034,40.011a14.617,14.617,0,0,1-10.259-3.786C120.966,33.66,119.5,30,119.5,25.111c0-4.763,1.466-8.549,4.275-11.358,2.931-2.809,6.6-4.153,11.236-4.153a15.645,15.645,0,0,1,7.45,1.832,11.783,11.783,0,0,1,5.252,5.374l-7.694,4.03a5.274,5.274,0,0,0-8.671-1.343c-1.1,1.1-1.588,2.931-1.588,5.374q0,3.481,1.466,5.13a4.645,4.645,0,0,0,3.664,1.588c2.2,0,4.152-1.343,5.618-3.908l7.45,3.908C145.514,37.2,140.751,40.011,134.034,40.011Z" transform="translate(1139.449 1720.125)"/>
    <path id="Path_173" data-name="Path 173" class="cls-1" d="M158.467,9.6a14.343,14.343,0,0,1,9.648,3.175c2.443,2.076,3.664,5.13,3.664,8.916V39.4h-8.916V36.347a11.168,11.168,0,0,1-8.671,3.664,10.283,10.283,0,0,1-7.206-2.443,8.225,8.225,0,0,1-2.687-6.6,8.489,8.489,0,0,1,2.076-5.74,12.18,12.18,0,0,1,5.252-3.175,24.712,24.712,0,0,1,6.962-.855,35.173,35.173,0,0,1,3.908.244,3.409,3.409,0,0,0-1.466-3.053,5.521,5.521,0,0,0-3.542-.977,14.935,14.935,0,0,0-8.549,3.053l-3.908-6.229a16.735,16.735,0,0,1,5.984-3.42A22.166,22.166,0,0,1,158.467,9.6Zm-1.343,22.839a4.891,4.891,0,0,0,3.542-1.466,5.817,5.817,0,0,0,1.71-3.908h-3.3c-3.175,0-4.763.977-4.763,2.809a2.486,2.486,0,0,0,.733,1.832A2.442,2.442,0,0,0,157.124,32.439Z" transform="translate(1144.938 1720.125)"/>
  </g>
</svg>
