<?xml version="1.0" encoding="utf-8"?><svg xmlns="http://www.w3.org/2000/svg" xmlns:xlink="http://www.w3.org/1999/xlink"><symbol viewBox="0 0 9600 4800" id="CA" xmlns="http://www.w3.org/2000/svg"><path fill="red" d="M0 0h2400l99 99h4602l99-99h2400v4800H7200l-99-99H2499l-99 99H0z"/><path fill="#fff" d="M2400 0h4800v4800H2400zm2490 4430l-45-863a95 95 0 01111-98l859 151-116-320a65 65 0 0120-73l941-762-212-99a65 65 0 01-34-79l186-572-542 115a65 65 0 01-73-38l-105-247-423 454a65 65 0 01-111-57l204-1052-327 189a65 65 0 01-91-27l-332-652-332 652a65 65 0 01-91 27l-327-189 204 1052a65 65 0 01-111 57l-423-454-105 247a65 65 0 01-73 38l-542-115 186 572a65 65 0 01-34 79l-212 99 941 762a65 65 0 0120 73l-116 320 859-151a95 95 0 01111 98l-45 863z"/></symbol><symbol fill="none" viewBox="0 0 40 26" id="CS" xmlns="http://www.w3.org/2000/svg"><path fill="#fff" d="M0 0h40v26H0z"/><path fill="#D7141A" d="M0 0h40v26H0z"/><path fill="#fff" d="M0 0h40v13H0z"/><path d="M20 13L0 0v26l20-13z" fill="#11457E"/></symbol><symbol fill="none" viewBox="0 0 40 26" id="DE" xmlns="http://www.w3.org/2000/svg"><path fill="#fff" d="M0 0h40v26H0z"/><path d="M40 0H0v26h40V0z" fill="#D80027"/><path d="M40 0H0v8.666h40V0z" fill="#000"/><path d="M40 17.333H0v8.666h40v-8.666z" fill="#FFDA44"/></symbol><symbol fill="none" viewBox="0 0 40 26" id="EN" xmlns="http://www.w3.org/2000/svg"><path fill="#fff" d="M0 0h40v26H0z"/><path fill="#00247D" d="M0 0h40v26H0z"/><path d="M0 20L40 0v6L0 26v-6z" fill="#fff"/><path d="M0 23l12-6h4L0 25v-2zM40 3L28 9h-4l16-8v2z" fill="#CF142B"/><path d="M40 20L0 0v6l40 20v-6z" fill="#fff"/><path d="M40 21l-12-6h-4l16 8v-2zM0 5l12 6h4L0 3v2z" fill="#CF142B"/><path fill="#fff" d="M15.678 0h8.644v26h-8.644z"/><path fill="#fff" d="M0 17.322V8.678h40v8.644z"/><path fill="#CF142B" d="M0 15.602v-5.203h40v5.203z"/><path fill="#CF142B" d="M17.398 0h5.203v26h-5.203z"/></symbol><symbol fill="none" viewBox="0 0 40 26" id="ES" xmlns="http://www.w3.org/2000/svg"><path fill="#fff" d="M0 0h40v26H0z"/><path d="M39.964 12.936c.007-.108.014-.216.014-.325 0-1.049.015-2.981.015-2.981l-.015-.963H0l.014.963S0 11.563 0 12.612c0 0 .007.761.016.87.002 1.026-.002 2.133-.002 2.133l.002 1.718h39.977c.028-.647-.037-1.038-.029-1.718.013-1.078.013-.115 0-2.68z" fill="#FEC01B"/><path fill="#BF2126" d="M0 17.333h40V26H0zM0 0h40v8.667H0z"/></symbol><symbol fill="none" viewBox="0 0 40 26" id="FI" xmlns="http://www.w3.org/2000/svg"><path d="M40 0H0v26h40V0z" fill="#fff"/><path d="M40 9.455H0v7.09h40v-7.09z" fill="#003580"/><path d="M17.778 0H11.11v26h6.667V0z" fill="#003580"/></symbol><symbol fill="none" viewBox="0 0 40 26" id="FR" xmlns="http://www.w3.org/2000/svg"><g clip-path="url(#gclip0)"><path fill="#fff" d="M0 0h40v26H0z"/><path d="M26.667 0v26H13.333V0h13.334z" fill="#fff"/><path d="M40 0v26H26.667V0H40z" fill="#ED2939"/><path d="M13.333 0v26H0V0h13.333z" fill="#002395"/></g><defs><clipPath id="gclip0"><path fill="#fff" d="M0 0h40v26H0z"/></clipPath></defs></symbol><symbol fill="none" viewBox="0 0 40 40" id="JA" xmlns="http://www.w3.org/2000/svg"><circle cx="20" cy="20" r="20" fill="#fff"/><circle cx="20" cy="20" r="9" fill="#BC002D"/></symbol><symbol fill="none" viewBox="0 0 40 26" id="NL" xmlns="http://www.w3.org/2000/svg"><g clip-path="url(#iclip0)"><path fill="#fff" d="M0 0h40v26H0z"/><path d="M0 8.667h40v8.666H0V8.667z" fill="#fff"/><path d="M0 0h40v8.667H0V0z" fill="#AE1C28"/><path d="M0 17.333h40V26H0v-8.667z" fill="#21468B"/></g><defs><clipPath id="iclip0"><path fill="#fff" d="M0 0h40v26H0z"/></clipPath></defs></symbol><symbol fill="none" viewBox="0 0 40 26" id="NO" xmlns="http://www.w3.org/2000/svg"><path fill="#fff" d="M0 0h40v26H0z"/><path fill="#EF2B2D" d="M0 0h40v26H0z"/><path fill="#fff" d="M0 9.357h40v7.285H0z"/><path fill="#fff" d="M10.861 26V0h7.285v26z"/><path fill="#002868" d="M0 11.2h40v3.6H0z"/><path fill="#002868" d="M12.704 26V0h3.6v26z"/></symbol><symbol fill="none" viewBox="0 0 40 26" id="PL" xmlns="http://www.w3.org/2000/svg"><path fill="#fff" d="M0 0h40v26H0z"/><path d="M0 13h40v13H0V13z" fill="#FF4B55"/><path d="M40 13H0V0h40v13z" fill="#F5F5F5"/></symbol><symbol fill="none" viewBox="0 0 40 25" id="PT" xmlns="http://www.w3.org/2000/svg"><path fill="#009B3A" d="M0 0h40v25H0z"/><path d="M3.024 12.537l16.743 10.658 16.695-10.732L19.719 1.805 3.024 12.537z" fill="#FEDF00"/><path d="M19.758 19.569a7.069 7.069 0 10-.031-14.138 7.069 7.069 0 00.031 14.138z" fill="#002776"/><path d="M19.727 5.431c-2.151.005-4.055.993-5.342 2.47l10.777 9.136a7.009 7.009 0 001.65-4.553c-.01-3.872-3.213-7.061-7.085-7.053z" fill="#021E47"/><path d="M13.258 9.682a7.022 7.022 0 00-.376 1.11 16.252 16.252 0 012.922-.25 16.048 16.048 0 0110.7 4.025c.109-.356.19-.724.241-1.1a17.077 17.077 0 00-11.005-3.97c-.843.002-1.671.066-2.482.185z" fill="#fff"/></symbol><symbol fill="none" viewBox="0 0 40 26" id="RU" xmlns="http://www.w3.org/2000/svg"><path fill="#fff" d="M0 0h40v26H0z"/><path d="M0 0h40v8.667H0V0z" fill="#fff"/><path d="M0 8.667h40v8.666H0V8.667z" fill="#00F"/><path d="M0 17.333h40V26H0v-8.667z" fill="red"/></symbol><symbol fill="none" viewBox="0 0 40 26" id="SV" xmlns="http://www.w3.org/2000/svg"><path d="M40 0H0v26h40V0z" fill="#005293"/><path d="M40 10H0v6h40v-6z" fill="#FECB00"/><path d="M17.5 0h-5v26h5V0z" fill="#FECB00"/></symbol><symbol fill="none" viewBox="0 0 40 26" id="TR" xmlns="http://www.w3.org/2000/svg"><path fill="#fff" d="M0 0h40v26H0z"/><path d="M30.978 26H40V1.289 0H0v26h30.978z" fill="#FF5E4C"/><path d="M23.392 11.392l1.339.454L25.864 11l-.018 1.414L27 13.23l-1.35.42-.42 1.35-.816-1.154-1.414.018.846-1.134-.454-1.338z" fill="#fff"/><path d="M20.149 17.154c1.066 0 2.09-.428 2.851-1.191-1.319 2.368-4.037 3.533-6.619 2.838C13.799 18.104 12 15.723 12 13c0-2.723 1.799-5.105 4.381-5.8 2.582-.696 5.3.47 6.619 2.837a4.013 4.013 0 00-4.911-.619c-1.586.948-2.353 2.862-1.872 4.671.482 1.81 2.093 3.065 3.932 3.065z" fill="#fff"/></symbol><symbol fill="none" viewBox="0 0 40 26" id="UK" xmlns="http://www.w3.org/2000/svg"><path fill="#fff" d="M0 0h40v26H0z"/><path d="M0 13h40v13H0V13z" fill="#FFD500"/><path d="M40 13H0V0h40v13z" fill="#005BBB"/></symbol></svg>