<svg width="158" height="58" viewBox="0 0 158 58" fill="none" xmlns="http://www.w3.org/2000/svg">
<path d="M1.73572 20.9763V29.2113L24.3124 26.8157V17.9817L1.73572 20.9763ZM8.91242 29.6605V57.8093H17.1357V28.7621L8.91242 29.6605ZM27.4522 17.3828V57.8093H36.1241V16.185L27.4522 17.3828ZM37.7687 16.0353V25.3184L50.328 23.9708V14.2385L37.7687 16.0353ZM37.7687 32.2059V41.6387L45.992 41.1895V31.4572L37.7687 32.2059ZM37.7687 48.5262V57.8093H50.328V48.077L37.7687 48.5262ZM82.9221 9.74669V57.8093H94.2852V8.24941L82.9221 9.74669ZM96.528 7.94995V18.8801L113.124 17.0833V5.55431L96.528 7.94995ZM96.528 27.2648V38.4944L107.443 37.8955V26.3665L96.528 27.2648ZM96.528 46.7295V57.8093H113.124V46.2803L96.528 46.7295ZM53.6173 13.7893V57.8093H63.4852V12.4418L53.6173 13.7893ZM65.4289 47.6278V57.8093H79.7823V47.1786L65.4289 47.6278ZM150.503 5.10513C146.914 1.81111 141.532 0.313837 135.85 1.2122V13.4899C138.243 13.3402 140.037 14.2385 140.934 15.8855C142.279 18.5806 140.934 22.6233 137.644 26.3665C132.561 32.2059 119.254 44.0343 119.254 44.0343L138.392 43.4354C150.054 32.2059 154.39 25.4681 155.138 16.9336C155.437 12.4418 153.792 8.09968 150.503 5.10513ZM155.736 57.8093V44.9327L116.862 46.1305L155.736 57.8093ZM116.862 46.1305V57.8093H155.736L116.862 46.1305ZM133.608 1.36193C122.244 3.75758 116.712 11.8429 117.46 25.1686L129.571 24.1206C128.973 16.6342 131.365 14.8374 133.757 13.7893L133.608 1.36193Z" fill="#1B8CCB"/>
</svg>
