<svg width="160" height="48" viewBox="0 0 160 48" fill="none" xmlns="http://www.w3.org/2000/svg">
<path d="M130.981 14.298C136.471 10.038 141.934 5.74527 147.338 1.37793C147.377 7.56291 147.308 13.7504 147.373 19.9341C147.474 21.0159 147.413 22.1025 147.428 23.1879C147.428 25.5521 147.423 27.9171 147.432 30.2813C147.455 30.5587 147.35 30.8264 147.11 30.9743C140.776 35.3074 134.438 39.6333 128.114 43.9787C136.105 41.4155 144.067 38.7582 152.054 36.1765C152.194 36.0971 152.426 36.0726 152.481 35.8965C152.418 30.5844 152.487 25.2636 152.451 19.9475C154.282 19.9805 156.115 19.9623 157.945 19.9573C158.052 21.4779 157.964 23.0072 157.994 24.5313C157.994 31.9374 157.991 39.3436 157.996 46.7497C147.812 46.7716 137.629 46.751 127.447 46.7608C126.666 46.7631 125.828 46.7215 125.165 46.2546C124.517 45.8574 124.049 45.2108 123.769 44.5128C123.535 43.953 123.61 43.3357 123.602 42.7465C123.604 36.146 123.602 29.5452 123.602 22.9447C123.684 21.6895 124.162 20.4525 124.985 19.4989C126.645 17.3978 128.91 15.9395 130.981 14.298Z" fill="#FECB31"/>
<path d="M20.4633 1.39793C21.0965 1.18504 21.7714 1.24897 22.4276 1.24563C23.2677 1.2542 24.1099 1.21262 24.9479 1.30957C24.9207 1.59349 24.8978 1.88264 24.7954 2.15278C21.5186 11.0665 18.2836 19.9959 15.0549 28.9272C14.9316 29.2458 14.9358 29.592 14.9337 29.9296C14.9525 34.4723 14.9232 39.0149 14.9483 43.5556C14.5889 43.6751 14.2127 43.7167 13.8345 43.7046C12.8815 43.6889 11.9265 43.7288 10.9736 43.6561C10.9088 38.8417 10.9652 34.0237 10.9464 29.2093C8.08341 21.8363 5.27681 14.4406 2.49322 7.03638C2.26753 6.4165 1.92483 5.80205 2.01469 5.11824C3.1369 4.98307 4.27162 5.06977 5.39801 5.04031C5.76581 5.01253 6.12736 5.09401 6.44918 5.27577C8.0207 9.96716 9.7009 14.6207 11.3205 19.2948C11.9725 21.0953 12.6057 22.901 13.3037 24.684C13.9055 22.1495 14.5805 19.629 15.4081 17.1585C17.0715 11.8993 18.7977 6.65717 20.4633 1.39793Z" fill="#E92730"/>
<path d="M71.0462 5.10003C72.2123 4.9893 73.3889 5.05155 74.5591 5.04988C74.7911 5.00998 75.0482 5.20908 74.9771 5.46877C74.9792 18.1342 74.9729 30.7995 74.9813 43.4649C74.8894 43.5236 74.7075 43.6398 74.6156 43.6985C73.9155 43.6657 73.1945 43.7816 72.5091 43.6206C72.1246 43.2416 71.9198 42.7222 71.6481 42.2617C70.156 43.5809 68.2062 44.6577 66.1562 44.2854C64.5303 44.1347 63.1093 43.1931 62.0038 42.0348C61.4061 41.384 61.0154 40.5772 60.5911 39.8069C60.4344 39.4538 60.2797 39.0988 60.1293 38.7439C60.0687 38.5725 60.006 38.4012 59.9454 38.2314C59.8931 38.0532 59.8409 37.875 59.7886 37.6965C59.7301 37.4663 59.6758 37.2308 59.6215 37.0006C59.5504 36.7184 59.5023 36.4328 59.4501 36.1472C59.0175 34.2221 59.1345 32.2382 59.1304 30.2801C59.1199 28.826 59.3289 27.3805 59.6131 25.9573C59.6674 25.67 59.7176 25.3826 59.7865 25.0986C59.8471 24.8719 59.9057 24.6434 59.9705 24.4167C60.0227 24.24 60.0791 24.0653 60.1376 23.8904C60.2233 23.6445 60.3132 23.4022 60.401 23.1563C60.5786 22.7564 60.7583 22.3565 60.9443 21.9583C61.1345 21.6121 61.3205 21.2676 61.5044 20.9179C62.1856 19.7165 63.2911 18.8595 64.4112 18.1014C66.0998 17.2322 68.7287 17.1775 71.2302 18.0431C71.3221 18.0734 71.4433 20.6845 71.0024 21.6274C69.97 20.9655 68.5845 20.1463 66.9984 20.6885C62.4406 22.1119 61.4375 39.721 67.2721 40.8534C67.3641 40.8828 69.4601 41.2267 71.0212 40.185C70.9585 39.0491 71.0191 19.6255 71.017 17.9844C71.0421 13.6893 70.9856 9.39425 71.0462 5.09919V5.10003Z" fill="#0F0F0F"/>
<path d="M138.506 19.9004C139.123 19.1122 140.007 18.4096 141.068 18.3066C141.514 18.2464 142.003 18.3088 142.366 18.5786C143.934 19.5885 142.256 22.3576 141.079 23.0915C140.498 23.5232 139.729 23.6782 139.008 23.6088C138.352 23.5219 137.913 22.9432 137.739 22.3762C137.602 21.4931 137.971 20.6064 138.506 19.9004Z" fill="black"/>
<path d="M147.53 20.0646C149.246 20.0792 150.961 20.0548 152.677 20.0779C152.713 25.3898 152.644 30.7067 152.706 36.0149C152.652 36.1908 152.416 36.2152 152.274 36.2946C144.18 38.8742 136.107 41.5296 128.007 44.0908C134.419 39.7488 140.843 35.4261 147.262 31.0964C147.507 30.9485 147.611 30.681 147.591 30.4038C147.582 28.0417 147.584 25.6781 147.584 23.3161C147.57 22.2313 147.63 21.1455 147.53 20.0646Z" fill="#CCA74D"/>
<path d="M25.8297 17.7691C26.9645 17.4177 28.1515 17.3362 29.326 17.2307C29.932 17.331 30.5526 17.3398 31.1419 17.5284C32.5379 17.8936 33.6706 18.8977 34.5274 20.0282C34.6089 20.2169 34.6946 20.4039 34.7782 20.5908C34.9036 20.8783 35.0185 21.1691 35.1272 21.4633C35.2045 21.685 35.2755 21.9083 35.3487 22.1317C35.4072 22.3619 35.4657 22.5957 35.5368 22.824C35.5723 23.0614 35.6016 23.3002 35.6308 23.5392C35.8252 24.3838 35.706 25.2615 35.8879 26.1081C35.9485 31.8332 35.9004 37.56 35.9129 43.2866C35.9547 43.5896 35.5911 43.7179 35.3487 43.6936C34.7008 43.7126 34.053 43.7039 33.4073 43.6642C33.2798 43.4235 33.1586 43.1811 33.0437 42.9352C32.8974 42.5648 32.7448 42.1996 32.5923 41.8309C31.5035 43.0096 30.1284 44.0519 28.5026 44.2769C27.023 44.5556 25.4724 44.0398 24.3397 43.0704C23.2113 42.2203 22.5968 40.9028 22.0263 39.6459C21.9427 39.3934 21.8529 39.1439 21.7714 38.8947C21.6982 38.6696 21.6356 38.4446 21.5645 38.223C21.5018 37.9338 21.4621 37.6413 21.414 37.3505C21.251 36.22 21.2761 35.0548 21.3973 33.921C21.5081 33.0761 21.7505 32.259 22.0347 31.4609C22.6282 30.0691 23.345 28.653 24.624 27.7718C26.6907 26.1047 29.6958 26.2518 31.9528 27.4498C31.957 27.2655 31.9591 30.9668 31.9612 30.7823C32.354 30.9863 29.0208 28.8458 27.2779 30.2112C25.4995 31.8842 25.5037 35.1012 25.533 36.2476C25.5643 37.3942 26.3125 40.8176 28.6969 40.9808C31.119 40.9899 31.9256 39.5085 31.9256 39.4625C31.9235 39.094 31.9549 25.6071 31.9361 25.2392C31.8002 24.6107 31.7229 23.9702 31.562 23.347C31.5098 23.1635 31.4617 22.9801 31.4157 22.7964C31.1294 21.962 30.63 21.1416 29.8317 20.7191C28.9477 20.2881 27.9383 20.5495 27.0836 20.9166C27 20.9667 26.8349 21.067 26.7513 21.119C26.5716 21.2055 26.3919 21.2955 26.2122 21.3873C25.5978 21.6522 25.0126 22.459 24.3105 22.0176C24.1642 21.6436 24.0012 21.2765 23.834 20.9113C23.5602 20.2378 23.0942 19.6164 23.0357 18.8754C23.1423 18.8114 23.3554 18.685 23.4599 18.6226C24.1893 18.2833 24.9499 18.0133 25.7294 17.8195L25.8297 17.7691Z" fill="#0F0F0F"/>
<path d="M83.4031 18.4793C85.0415 17.207 87.3821 17.0183 89.2357 17.915C90.0214 18.4223 90.7362 19.0455 91.3129 19.7863C91.7852 20.4582 92.1091 21.2233 92.4456 21.9729C92.6671 22.532 92.8343 23.112 93.0098 23.6886C93.0579 23.9759 93.1059 24.265 93.1854 24.5473C93.2334 24.8935 93.2773 25.2432 93.3692 25.5825C93.6618 27.6045 93.6096 29.6507 93.6054 31.6918C92.7298 31.6762 85.0018 31.8688 83.0291 31.4351C82.8096 31.437 81.5662 29.6743 82.6174 29.0437C82.4168 28.6021 88.5502 28.3482 89.5366 28.5346C89.5972 21.0071 87.1564 20.5921 86.7175 20.5911C84.4647 20.337 83.307 24.5088 83.2778 28.8093C83.842 29.144 83.8127 30.2054 83.1001 31.4113C83.1168 32.469 82.9998 33.5389 83.19 34.5882C83.2401 34.8771 83.284 35.1698 83.3467 35.4589C83.4136 35.6823 83.4742 35.9106 83.5432 36.1375C83.5975 36.3124 83.6539 36.4873 83.7124 36.6621C83.8587 37.0221 84.0092 37.3788 84.1555 37.7389C84.7281 39.0702 85.9255 40.1192 87.3173 40.4984C89.0894 40.9589 90.8971 40.4188 92.6671 40.2299C92.7277 40.4221 92.7883 40.6127 92.8531 40.8047C92.8928 41.0401 92.9367 41.2773 92.991 41.5127C93.0704 41.7603 93.1456 42.0097 93.2251 42.259C93.1833 42.349 93.0976 42.5273 93.0579 42.6173C91.5867 43.4171 89.9964 44.0888 88.3099 44.1823C86.4375 44.442 84.4773 43.9538 83.0019 42.7558C81.8003 41.963 81.0396 40.7077 80.3792 39.4613C80.3374 39.3748 80.2539 39.2035 80.2142 39.1168C80.095 38.8312 79.9738 38.5472 79.8526 38.265C79.7586 37.9621 79.6604 37.6627 79.5642 37.3614C79.5057 37.1312 79.4556 36.8993 79.397 36.6707C79.094 35.367 78.8871 34.0341 78.9185 32.6907C78.9415 31.1967 78.8265 29.6853 79.0585 28.2034C79.163 27.2737 79.3553 26.358 79.5893 25.4525C79.6917 25.0458 79.8066 24.6407 79.9341 24.2408C79.9864 24.0642 80.0428 23.8894 80.0992 23.7162C80.1598 23.5449 80.2225 23.3735 80.2831 23.202C80.3855 22.906 80.4984 22.6151 80.6154 22.326C80.7282 22.0352 80.8494 21.7462 80.9748 21.4604C81.5516 20.2971 82.4335 19.3242 83.4052 18.4795L83.4031 18.4793Z" fill="#0F0F0F"/>
<path d="M46.4978 18.4319C48.3159 17.5611 50.46 17.2909 52.3784 17.9871C54.2425 18.6293 55.3438 20.7377 55.1808 22.6542C55.1746 29.5875 55.1767 36.5211 55.1808 43.4528C55.091 43.515 54.9092 43.6379 54.8193 43.6984C53.624 43.6274 52.391 43.856 51.2249 43.5583C51.2207 36.6993 51.2207 29.8387 51.2249 22.9797C50.8926 22.0709 50.2176 21.2312 49.2334 21.0269C47.7099 20.7135 46.0423 21.0233 44.7424 21.8941C44.7591 28.4347 44.7445 34.9751 44.7487 41.5173C44.7424 42.2287 44.7738 42.9419 44.7153 43.6535C43.5262 43.7452 42.335 43.683 41.1438 43.6951C41.0561 43.6362 40.8784 43.515 40.7886 43.4544C40.8032 34.9976 40.799 26.5389 40.7906 18.0821C41.0247 17.9799 41.2608 17.8502 41.5283 17.8744C42.592 17.8849 43.6641 17.8293 44.7257 17.9229C44.7549 18.4041 44.7508 18.8854 44.7529 19.3668C45.2293 19.133 45.6786 18.8507 46.1509 18.6084C46.2387 18.5651 46.4121 18.477 46.4978 18.4319Z" fill="#0F0F0F"/>
<path d="M96.316 18.2625C96.8071 17.641 97.6409 17.9284 98.318 17.8695C99.0264 17.9147 99.785 17.7293 100.452 18.0548C100.638 18.5569 100.842 19.0554 101.022 19.561C101.106 19.7774 101.191 19.9937 101.279 20.2101C101.444 20.6725 101.62 21.1329 101.802 21.5898C101.992 22.1282 102.211 22.6564 102.401 23.1965C102.487 23.411 102.573 23.6275 102.663 23.8422C102.744 24.0898 102.834 24.3355 102.922 24.5848C103.005 24.7995 103.087 25.0141 103.173 25.2305C103.369 25.8053 103.57 26.38 103.818 26.9341C103.981 26.4805 104.146 26.0286 104.299 25.5734C104.378 25.3553 104.456 25.1388 104.537 24.9224C104.596 24.7494 104.656 24.5797 104.721 24.4101C104.966 23.6985 105.233 22.9957 105.492 22.2893C105.578 22.0712 105.659 21.8548 105.749 21.6383C105.833 21.3926 105.925 21.1503 106.01 20.906C106.096 20.6879 106.182 20.4715 106.272 20.2552C106.357 20.0093 106.447 19.7634 106.535 19.5177C106.619 19.2996 106.702 19.0832 106.788 18.865C106.94 18.4927 107.02 17.9232 107.523 17.8921C108.547 17.8662 109.584 17.8229 110.604 17.9163C110.66 17.9562 110.769 18.0375 110.827 18.0791C110.798 18.6764 110.428 19.1801 110.217 19.7237C109.966 20.2933 109.716 20.8628 109.454 21.4271C109.233 21.95 108.999 22.4659 108.761 22.9817C108.483 23.6275 108.192 24.2664 107.9 24.905C107.647 25.4902 107.379 26.0667 107.12 26.6466C106.865 27.2145 106.616 27.7859 106.349 28.3466C106.059 29.0045 105.789 29.6746 105.434 30.2995C105.463 30.6527 105.603 30.9799 105.741 31.3035C106.073 32.0567 106.391 32.8166 106.711 33.5766C106.882 33.9782 107.06 34.38 107.22 34.7884C107.86 36.2876 108.491 37.7885 109.12 39.2913C109.296 39.6929 109.461 40.0997 109.628 40.5048C109.774 40.8388 109.914 41.1765 110.056 41.5124C110.301 42.1062 110.541 42.7035 110.819 43.2816C110.75 43.3785 110.614 43.5743 110.545 43.6712C109.507 43.7144 108.466 43.7007 107.425 43.6885C107.145 43.6971 106.945 43.4702 106.715 43.349C106.662 43.1502 106.61 42.9527 106.556 42.7553C106.456 42.5113 106.359 42.2654 106.272 42.0178C106.092 41.5592 105.921 41.0985 105.753 40.6364C105.569 40.1793 105.402 39.7188 105.229 39.2583C105.112 38.9675 105.001 38.675 104.899 38.3806C104.809 38.1677 104.725 37.953 104.642 37.7417C104.556 37.4925 104.464 37.2468 104.378 37.0009C104.311 36.8296 104.253 36.6599 104.194 36.4903C104.113 36.272 104.036 36.0538 103.954 35.8393C103.749 35.2039 103.509 34.5807 103.331 33.9366C103.267 33.9454 103.135 33.9609 103.07 33.968C102.997 34.25 102.913 34.527 102.832 34.8057C102.431 36.0158 102.042 37.2295 101.624 38.4343C101.561 38.604 101.499 38.7753 101.442 38.9468C101.359 39.163 101.279 39.3795 101.202 39.5959C101.116 39.8469 101.026 40.0944 100.945 40.3456C100.88 40.5152 100.817 40.6849 100.759 40.8562C100.675 41.0709 100.596 41.2874 100.514 41.5036C100.429 41.7512 100.341 41.9988 100.257 42.2499C100.09 42.6774 99.9334 43.1119 99.7474 43.5344C98.6691 43.8582 97.5176 43.633 96.4079 43.6885C96.2909 43.6192 96.0589 43.4773 95.9419 43.408C95.9983 43.1119 96.0924 42.828 96.1989 42.5493C96.4205 42.1062 96.5981 41.6457 96.7987 41.1938C96.9617 40.7853 97.1435 40.3852 97.3128 39.9801C97.457 39.6237 97.6158 39.274 97.7579 38.9174C97.9251 38.5106 98.1132 38.114 98.2699 37.7037C98.4454 37.3022 98.621 36.9004 98.7819 36.492C98.9282 36.1579 99.0703 35.8236 99.2103 35.4895C99.3566 35.1296 99.5112 34.7746 99.6554 34.4163C99.8289 34.0129 100.002 33.6094 100.167 33.2027C100.343 32.8011 100.508 32.3924 100.675 31.9857C100.815 31.6497 100.962 31.3157 101.11 30.9816C101.354 30.4829 101.532 29.9169 101.233 29.3959C100.638 28.1425 100.113 26.8562 99.5489 25.5872C99.3441 25.1388 99.1623 24.6784 98.9512 24.2333C98.7067 23.6379 98.4308 23.0563 98.1842 22.4623C97.9794 22.014 97.7934 21.557 97.5824 21.112C97.3985 20.6342 97.1644 20.1754 96.9763 19.6995C96.7548 19.2217 96.5626 18.7282 96.316 18.2625Z" fill="#0F0F0F"/>
</svg>
